<svg id="Слой_1" data-name="Слой 1" xmlns="http://www.w3.org/2000/svg" xmlns:xlink="http://www.w3.org/1999/xlink" viewBox="0 0 384.65 527.13"><defs><style>.cls-1{fill:none;}.cls-2{fill:#28241b;}.cls-3{clip-path:url(#clip-path);}.cls-4{fill:#30302e;}.cls-5{fill:#a8a8a8;}.cls-10,.cls-6{opacity:0.3;}.cls-15,.cls-7{opacity:0.5;}.cls-8{opacity:0.88;}.cls-9{fill:#df5d00;}.cls-10,.cls-21{fill:#fff;}.cls-11{fill:#3f3723;}.cls-12{clip-path:url(#clip-path-2);}.cls-13{clip-path:url(#clip-path-3);}.cls-14{opacity:0.1;}.cls-15{fill:#9f2c00;}.cls-16{fill:#1c0c01;}.cls-17{fill:#130100;}.cls-18{opacity:0.05;}.cls-19{clip-path:url(#clip-path-4);}.cls-20{clip-path:url(#clip-path-5);}</style><clipPath id="clip-path"><rect class="cls-1" y="518.13" width="240" height="9"/></clipPath><clipPath id="clip-path-2"><rect class="cls-1" y="499.13" width="240" height="8"/></clipPath><clipPath id="clip-path-3"><rect class="cls-1" y="496.64" width="240" height="8.49"/></clipPath><clipPath id="clip-path-4"><path class="cls-1" d="M239.74,249.43c7.85-27.63-29.56-70.65-29.56-70.65L1,215.13V449.72S192.48,415.73,239.74,249.43Z"/></clipPath><clipPath id="clip-path-5"><rect class="cls-1" x="-104.94" y="157.1" width="411.91" height="289.24" transform="translate(-179.29 151.16) rotate(-43.25)"/></clipPath></defs><title>Монтажная область 2</title><path class="cls-2" d="M.75,520.38V214.57a92.8,92.8,0,0,1,92.69-92.69c80.4,0,145.81,65.41,145.81,145.81V520.38Z"/><path d="M93.44,122.63A145.06,145.06,0,0,1,238.5,267.69V519.63H1.5V214.57a92,92,0,0,1,91.94-91.94m0-1.5h0A93.44,93.44,0,0,0,0,214.57V521.13H240V267.69A146.56,146.56,0,0,0,93.44,121.13Z"/><g class="cls-3"><path class="cls-2" d="M10,526.38c-5.1,0-9.25-3.7-9.25-8.25s4.15-8.25,9.25-8.25,9.25,3.7,9.25,8.25S15.1,526.38,10,526.38Z"/><path d="M10,510.63c4.69,0,8.5,3.36,8.5,7.5s-3.81,7.5-8.5,7.5-8.5-3.36-8.5-7.5,3.81-7.5,8.5-7.5m0-1.5c-5.52,0-10,4-10,9s4.48,9,10,9,10-4,10-9-4.48-9-10-9Z"/><path class="cls-2" d="M30,526.38c-5.1,0-9.25-3.7-9.25-8.25s4.15-8.25,9.25-8.25,9.25,3.7,9.25,8.25S35.1,526.38,30,526.38Z"/><path d="M30,510.63c4.69,0,8.5,3.36,8.5,7.5s-3.81,7.5-8.5,7.5-8.5-3.36-8.5-7.5,3.81-7.5,8.5-7.5m0-1.5c-5.52,0-10,4-10,9s4.48,9,10,9,10-4,10-9-4.48-9-10-9Z"/><path class="cls-2" d="M50,526.38c-5.1,0-9.25-3.7-9.25-8.25s4.15-8.25,9.25-8.25,9.25,3.7,9.25,8.25S55.1,526.38,50,526.38Z"/><path d="M50,510.63c4.69,0,8.5,3.36,8.5,7.5s-3.81,7.5-8.5,7.5-8.5-3.36-8.5-7.5,3.81-7.5,8.5-7.5m0-1.5c-5.52,0-10,4-10,9s4.48,9,10,9,10-4,10-9-4.48-9-10-9Z"/><path class="cls-2" d="M50,526.38c-5.1,0-9.25-3.7-9.25-8.25s4.15-8.25,9.25-8.25,9.25,3.7,9.25,8.25S55.1,526.38,50,526.38Z"/><path d="M50,510.63c4.69,0,8.5,3.36,8.5,7.5s-3.81,7.5-8.5,7.5-8.5-3.36-8.5-7.5,3.81-7.5,8.5-7.5m0-1.5c-5.52,0-10,4-10,9s4.48,9,10,9,10-4,10-9-4.48-9-10-9Z"/><path class="cls-2" d="M70,526.38c-5.1,0-9.25-3.7-9.25-8.25s4.15-8.25,9.25-8.25,9.25,3.7,9.25,8.25S75.1,526.38,70,526.38Z"/><path d="M70,510.63c4.69,0,8.5,3.36,8.5,7.5s-3.81,7.5-8.5,7.5-8.5-3.36-8.5-7.5,3.81-7.5,8.5-7.5m0-1.5c-5.52,0-10,4-10,9s4.48,9,10,9,10-4,10-9-4.48-9-10-9Z"/><path class="cls-2" d="M70,526.38c-5.1,0-9.25-3.7-9.25-8.25s4.15-8.25,9.25-8.25,9.25,3.7,9.25,8.25S75.1,526.38,70,526.38Z"/><path d="M70,510.63c4.69,0,8.5,3.36,8.5,7.5s-3.81,7.5-8.5,7.5-8.5-3.36-8.5-7.5,3.81-7.5,8.5-7.5m0-1.5c-5.52,0-10,4-10,9s4.48,9,10,9,10-4,10-9-4.48-9-10-9Z"/><path class="cls-2" d="M90,526.38c-5.1,0-9.25-3.7-9.25-8.25s4.15-8.25,9.25-8.25,9.25,3.7,9.25,8.25S95.1,526.38,90,526.38Z"/><path d="M90,510.63c4.69,0,8.5,3.36,8.5,7.5s-3.81,7.5-8.5,7.5-8.5-3.36-8.5-7.5,3.81-7.5,8.5-7.5m0-1.5c-5.52,0-10,4-10,9s4.48,9,10,9,10-4,10-9-4.48-9-10-9Z"/><path class="cls-2" d="M90,526.38c-5.1,0-9.25-3.7-9.25-8.25s4.15-8.25,9.25-8.25,9.25,3.7,9.25,8.25S95.1,526.38,90,526.38Z"/><path d="M90,510.63c4.69,0,8.5,3.36,8.5,7.5s-3.81,7.5-8.5,7.5-8.5-3.36-8.5-7.5,3.81-7.5,8.5-7.5m0-1.5c-5.52,0-10,4-10,9s4.48,9,10,9,10-4,10-9-4.48-9-10-9Z"/><path class="cls-2" d="M110,526.38c-5.1,0-9.25-3.7-9.25-8.25s4.15-8.25,9.25-8.25,9.25,3.7,9.25,8.25S115.1,526.38,110,526.38Z"/><path d="M110,510.63c4.69,0,8.5,3.36,8.5,7.5s-3.81,7.5-8.5,7.5-8.5-3.36-8.5-7.5,3.81-7.5,8.5-7.5m0-1.5c-5.52,0-10,4-10,9s4.48,9,10,9,10-4,10-9-4.48-9-10-9Z"/><path class="cls-2" d="M110,526.38c-5.1,0-9.25-3.7-9.25-8.25s4.15-8.25,9.25-8.25,9.25,3.7,9.25,8.25S115.1,526.38,110,526.38Z"/><path d="M110,510.63c4.69,0,8.5,3.36,8.5,7.5s-3.81,7.5-8.5,7.5-8.5-3.36-8.5-7.5,3.81-7.5,8.5-7.5m0-1.5c-5.52,0-10,4-10,9s4.48,9,10,9,10-4,10-9-4.48-9-10-9Z"/><path class="cls-2" d="M130,526.38c-5.1,0-9.25-3.7-9.25-8.25s4.15-8.25,9.25-8.25,9.25,3.7,9.25,8.25S135.1,526.38,130,526.38Z"/><path d="M130,510.63c4.69,0,8.5,3.36,8.5,7.5s-3.81,7.5-8.5,7.5-8.5-3.36-8.5-7.5,3.81-7.5,8.5-7.5m0-1.5c-5.52,0-10,4-10,9s4.48,9,10,9,10-4,10-9-4.48-9-10-9Z"/><path class="cls-2" d="M130,526.38c-5.1,0-9.25-3.7-9.25-8.25s4.15-8.25,9.25-8.25,9.25,3.7,9.25,8.25S135.1,526.38,130,526.38Z"/><path d="M130,510.63c4.69,0,8.5,3.36,8.5,7.5s-3.81,7.5-8.5,7.5-8.5-3.36-8.5-7.5,3.81-7.5,8.5-7.5m0-1.5c-5.52,0-10,4-10,9s4.48,9,10,9,10-4,10-9-4.48-9-10-9Z"/><path class="cls-2" d="M150,526.38c-5.1,0-9.25-3.7-9.25-8.25s4.15-8.25,9.25-8.25,9.25,3.7,9.25,8.25S155.1,526.38,150,526.38Z"/><path d="M150,510.63c4.69,0,8.5,3.36,8.5,7.5s-3.81,7.5-8.5,7.5-8.5-3.36-8.5-7.5,3.81-7.5,8.5-7.5m0-1.5c-5.52,0-10,4-10,9s4.48,9,10,9,10-4,10-9-4.48-9-10-9Z"/><path class="cls-2" d="M150,526.38c-5.1,0-9.25-3.7-9.25-8.25s4.15-8.25,9.25-8.25,9.25,3.7,9.25,8.25S155.1,526.38,150,526.38Z"/><path d="M150,510.63c4.69,0,8.5,3.36,8.5,7.5s-3.81,7.5-8.5,7.5-8.5-3.36-8.5-7.5,3.81-7.5,8.5-7.5m0-1.5c-5.52,0-10,4-10,9s4.48,9,10,9,10-4,10-9-4.48-9-10-9Z"/><path class="cls-2" d="M170,526.38c-5.1,0-9.25-3.7-9.25-8.25s4.15-8.25,9.25-8.25,9.25,3.7,9.25,8.25S175.1,526.38,170,526.38Z"/><path d="M170,510.63c4.69,0,8.5,3.36,8.5,7.5s-3.81,7.5-8.5,7.5-8.5-3.36-8.5-7.5,3.81-7.5,8.5-7.5m0-1.5c-5.52,0-10,4-10,9s4.48,9,10,9,10-4,10-9-4.48-9-10-9Z"/><path class="cls-2" d="M170,526.38c-5.1,0-9.25-3.7-9.25-8.25s4.15-8.25,9.25-8.25,9.25,3.7,9.25,8.25S175.1,526.38,170,526.38Z"/><path d="M170,510.63c4.69,0,8.5,3.36,8.5,7.5s-3.81,7.5-8.5,7.5-8.5-3.36-8.5-7.5,3.81-7.5,8.5-7.5m0-1.5c-5.52,0-10,4-10,9s4.48,9,10,9,10-4,10-9-4.48-9-10-9Z"/><path class="cls-2" d="M190,526.38c-5.1,0-9.25-3.7-9.25-8.25s4.15-8.25,9.25-8.25,9.25,3.7,9.25,8.25S195.1,526.38,190,526.38Z"/><path d="M190,510.63c4.69,0,8.5,3.36,8.5,7.5s-3.81,7.5-8.5,7.5-8.5-3.36-8.5-7.5,3.81-7.5,8.5-7.5m0-1.5c-5.52,0-10,4-10,9s4.48,9,10,9,10-4,10-9-4.48-9-10-9Z"/><path class="cls-2" d="M190,526.38c-5.1,0-9.25-3.7-9.25-8.25s4.15-8.25,9.25-8.25,9.25,3.7,9.25,8.25S195.1,526.38,190,526.38Z"/><path d="M190,510.63c4.69,0,8.5,3.36,8.5,7.5s-3.81,7.5-8.5,7.5-8.5-3.36-8.5-7.5,3.81-7.5,8.5-7.5m0-1.5c-5.52,0-10,4-10,9s4.48,9,10,9,10-4,10-9-4.48-9-10-9Z"/><path class="cls-2" d="M210,526.38c-5.1,0-9.25-3.7-9.25-8.25s4.15-8.25,9.25-8.25,9.25,3.7,9.25,8.25S215.1,526.38,210,526.38Z"/><path d="M210,510.63c4.69,0,8.5,3.36,8.5,7.5s-3.81,7.5-8.5,7.5-8.5-3.36-8.5-7.5,3.81-7.5,8.5-7.5m0-1.5c-5.52,0-10,4-10,9s4.48,9,10,9,10-4,10-9-4.48-9-10-9Z"/><path class="cls-2" d="M210,526.38c-5.1,0-9.25-3.7-9.25-8.25s4.15-8.25,9.25-8.25,9.25,3.7,9.25,8.25S215.1,526.38,210,526.38Z"/><path d="M210,510.63c4.69,0,8.5,3.36,8.5,7.5s-3.81,7.5-8.5,7.5-8.5-3.36-8.5-7.5,3.81-7.5,8.5-7.5m0-1.5c-5.52,0-10,4-10,9s4.48,9,10,9,10-4,10-9-4.48-9-10-9Z"/><path class="cls-2" d="M230,526.38c-5.1,0-9.25-3.7-9.25-8.25s4.15-8.25,9.25-8.25,9.25,3.7,9.25,8.25S235.1,526.38,230,526.38Z"/><path d="M230,510.63c4.69,0,8.5,3.36,8.5,7.5s-3.81,7.5-8.5,7.5-8.5-3.36-8.5-7.5,3.81-7.5,8.5-7.5m0-1.5c-5.52,0-10,4-10,9s4.48,9,10,9,10-4,10-9-4.48-9-10-9Z"/><path class="cls-2" d="M230,526.38c-5.1,0-9.25-3.7-9.25-8.25s4.15-8.25,9.25-8.25,9.25,3.7,9.25,8.25S235.1,526.38,230,526.38Z"/><path d="M230,510.63c4.69,0,8.5,3.36,8.5,7.5s-3.81,7.5-8.5,7.5-8.5-3.36-8.5-7.5,3.81-7.5,8.5-7.5m0-1.5c-5.52,0-10,4-10,9s4.48,9,10,9,10-4,10-9-4.48-9-10-9Z"/></g><circle class="cls-4" cx="161.82" cy="122.07" r="75.28" transform="translate(15.58 262.42) rotate(-80.85)"/><path class="cls-4" d="M193.08,72.51s195.35,85,191.22,183.89c0,0-142.32-125.95-195.31-64.53Z"/><path class="cls-5" d="M230.38,91s49.12,26.81,69.93,43.62c0,0-31.17,33.73-24.17,51.57,0,0-37-16.35-62.61-9.37C213.53,176.78,196.53,90.23,230.38,91Z"/><path class="cls-6" d="M283,158.13s96.38,63.13,101,98c0,0,6.46-50.49-88-116C296,140.13,281.81,158.22,283,158.13Z"/><path class="cls-5" d="M287.79,150.4s91.91,71,96.53,105.85c0,0,10.2-56.16-84.25-121.67C300.07,134.58,286.6,150.49,287.79,150.4Z"/><g class="cls-7"><path class="cls-5" d="M239.36,158.49c-6.06-1.8-12.12-3.56-18.22-5.17s-12.19-3.26-18.32-4.74c-12.25-3-24.57-5.72-37-7.74a248.83,248.83,0,0,0-37.5-3.91A107.22,107.22,0,0,0,109.53,138a48.77,48.77,0,0,0-17.8,5.84,36.85,36.85,0,0,1,8.45-4.29,61.25,61.25,0,0,1,9.18-2.52,107.32,107.32,0,0,1,19-1.66q4.76-.06,9.51.23c3.17.18,6.33.42,9.48.74,6.31.62,12.59,1.48,18.83,2.51s12.45,2.33,18.62,3.7,12.33,2.83,18.43,4.52,12.18,3.42,18.21,5.29S233.44,156.26,239.36,158.49Z"/></g><g class="cls-7"><path class="cls-5" d="M86.91,89c7.67,2.58,15.34,5.12,23.06,7.52s15.43,4.83,23.19,7.09c15.51,4.54,31.08,8.87,46.82,12.49a420.14,420.14,0,0,0,47.58,8.79,180.58,180.58,0,0,0,24.12,1.44c8-.09,16.17-.87,23.8-3.62A52.43,52.43,0,0,1,263.8,126a96.05,96.05,0,0,1-12.1,1.27,179.86,179.86,0,0,1-24.31-.89c-8.08-.75-16.09-2-24.07-3.45s-15.91-3.1-23.8-4.93q-23.62-5.69-46.81-13-11.57-3.66-23-7.63C102,94.73,94.42,92,86.91,89Z"/></g><path class="cls-8" d="M278.37,140.2c-1.43,2.38-7.1,1.61-12.66-1.73s-26.47-19.56-25-21.94,24.66,10,30.22,13.31S279.81,137.82,278.37,140.2Z"/><path class="cls-9" d="M198.28,104.16c-2.55,4-19.67-3.5-31.61-11.2s-37-29.25-34.45-33.2S164,70.94,175.9,78.65,200.83,100.21,198.28,104.16Z"/><path class="cls-10" d="M187.78,97.09c-1.74,2.7-13.42-2.39-21.56-7.64S141,69.51,142.73,66.81s21.65,7.63,29.79,12.88S189.52,94.4,187.78,97.09Z"/><path class="cls-11" d="M38.88,138.79C31.57,128,12.85,92.94,45,52.88l.61-.76-.89-.4c-.09,0-8.65-3.91-8.41-8.51.16-3.08,4.44-6.08,12.36-8.66l.2-.06.14-.16C49.34,34,78.51.75,124.37.75c33.68,0,67.75,17.51,101.27,52.06A402,402,0,0,0,182.73,71.3c-22,11-52.14,28.89-70.7,51.25a149.3,149.3,0,0,0-18.59-1.17A93.49,93.49,0,0,0,38.88,138.79Z"/><path d="M124.37,1.5c33.2,0,66.8,17.15,99.92,51a407.25,407.25,0,0,0-41.9,18.13c-22,11-52,28.81-70.67,51.12a150.11,150.11,0,0,0-18.28-1.12,94.23,94.23,0,0,0-54.37,17.11c-7.49-11.34-24.7-45.48,6.56-84.39l1.22-1.52L45.07,51c-2.12-.95-8.15-4.42-8-7.79.08-1.57,1.73-4.69,11.84-8l.4-.13.27-.32A101.71,101.71,0,0,1,69.79,18.12C81.58,10.54,100.63,1.5,124.37,1.5m0-1.5c-46.76,0-75.9,33.84-75.9,33.84-26.42,8.6-4,18.57-4,18.57-33.2,41.32-12.81,77.35-5.77,87.44a93,93,0,0,1,54.75-17.72h0a147.94,147.94,0,0,1,18.91,1.21C148.06,80,227,53.13,227,53.13,188,12.59,152.9,0,124.37,0Z"/><path class="cls-6" d="M104.73,1C69.6,8.32,48.48,32.84,48.48,32.84c-26.42,8.6-4,18.57-4,18.57-33.2,41.32-12.81,77.35-5.77,87.44a92.94,92.94,0,0,1,44.56-17.15C84.76,107.6,83,33.13,104.73,1Z"/><path class="cls-6" d="M206.23,61.26s-60.92,39.42-65.58,67.64c0,0-19.81-5.9-27.23-6.84C113.42,122.07,140.46,86.39,206.23,61.26Z"/><g class="cls-12"><g class="cls-6"><ellipse cx="10" cy="499.13" rx="10" ry="8"/><ellipse cx="30" cy="499.13" rx="10" ry="8"/><ellipse cx="50" cy="499.13" rx="10" ry="8"/><ellipse cx="50" cy="499.13" rx="10" ry="8"/><ellipse cx="70" cy="499.13" rx="10" ry="8"/><ellipse cx="70" cy="499.13" rx="10" ry="8"/><ellipse cx="90" cy="499.13" rx="10" ry="8"/><ellipse cx="90" cy="499.13" rx="10" ry="8"/><ellipse cx="110" cy="499.13" rx="10" ry="8"/><ellipse cx="110" cy="499.13" rx="10" ry="8"/><ellipse cx="130" cy="499.13" rx="10" ry="8"/><ellipse cx="130" cy="499.13" rx="10" ry="8"/><ellipse cx="150" cy="499.13" rx="10" ry="8"/><ellipse cx="150" cy="499.13" rx="10" ry="8"/><ellipse cx="170" cy="499.13" rx="10" ry="8"/><ellipse cx="170" cy="499.13" rx="10" ry="8"/><ellipse cx="190" cy="499.13" rx="10" ry="8"/><ellipse cx="190" cy="499.13" rx="10" ry="8"/><ellipse cx="210" cy="499.13" rx="10" ry="8"/><ellipse cx="210" cy="499.13" rx="10" ry="8"/><ellipse cx="230" cy="499.13" rx="10" ry="8"/><ellipse cx="230" cy="499.13" rx="10" ry="8"/></g></g><path class="cls-11" d="M.75,498.72V215.57a92.79,92.79,0,0,1,92.69-92.69c80.4,0,145.81,65.41,145.81,145.81v230Z"/><path d="M93.44,123.63A145.06,145.06,0,0,1,238.5,268.69V498H1.5V215.57a92,92,0,0,1,91.94-91.94m0-1.5h0A93.44,93.44,0,0,0,0,215.57v283.9H240V268.69A146.56,146.56,0,0,0,93.44,122.13Z"/><g class="cls-13"><path class="cls-11" d="M10,504.38c-5.1,0-9.25-3.47-9.25-7.74S4.9,488.9,10,488.9s9.25,3.47,9.25,7.74S15.1,504.38,10,504.38Z"/><path d="M10,489.65c4.69,0,8.5,3.14,8.5,7s-3.81,7-8.5,7-8.5-3.14-8.5-7,3.81-7,8.5-7m0-1.5c-5.52,0-10,3.8-10,8.49s4.48,8.49,10,8.49,10-3.8,10-8.49-4.48-8.49-10-8.49Z"/><path class="cls-11" d="M30,504.38c-5.1,0-9.25-3.47-9.25-7.74S24.9,488.9,30,488.9s9.25,3.47,9.25,7.74S35.1,504.38,30,504.38Z"/><path d="M30,489.65c4.69,0,8.5,3.14,8.5,7s-3.81,7-8.5,7-8.5-3.14-8.5-7,3.81-7,8.5-7m0-1.5c-5.52,0-10,3.8-10,8.49s4.48,8.49,10,8.49,10-3.8,10-8.49-4.48-8.49-10-8.49Z"/><path class="cls-11" d="M50,504.38c-5.1,0-9.25-3.47-9.25-7.74S44.9,488.9,50,488.9s9.25,3.47,9.25,7.74S55.1,504.38,50,504.38Z"/><path d="M50,489.65c4.69,0,8.5,3.14,8.5,7s-3.81,7-8.5,7-8.5-3.14-8.5-7,3.81-7,8.5-7m0-1.5c-5.52,0-10,3.8-10,8.49s4.48,8.49,10,8.49,10-3.8,10-8.49-4.48-8.49-10-8.49Z"/><path class="cls-11" d="M50,504.38c-5.1,0-9.25-3.47-9.25-7.74S44.9,488.9,50,488.9s9.25,3.47,9.25,7.74S55.1,504.38,50,504.38Z"/><path d="M50,489.65c4.69,0,8.5,3.14,8.5,7s-3.81,7-8.5,7-8.5-3.14-8.5-7,3.81-7,8.5-7m0-1.5c-5.52,0-10,3.8-10,8.49s4.48,8.49,10,8.49,10-3.8,10-8.49-4.48-8.49-10-8.49Z"/><path class="cls-11" d="M70,504.38c-5.1,0-9.25-3.47-9.25-7.74S64.9,488.9,70,488.9s9.25,3.47,9.25,7.74S75.1,504.38,70,504.38Z"/><path d="M70,489.65c4.69,0,8.5,3.14,8.5,7s-3.81,7-8.5,7-8.5-3.14-8.5-7,3.81-7,8.5-7m0-1.5c-5.52,0-10,3.8-10,8.49s4.48,8.49,10,8.49,10-3.8,10-8.49-4.48-8.49-10-8.49Z"/><path class="cls-11" d="M70,504.38c-5.1,0-9.25-3.47-9.25-7.74S64.9,488.9,70,488.9s9.25,3.47,9.25,7.74S75.1,504.38,70,504.38Z"/><path d="M70,489.65c4.69,0,8.5,3.14,8.5,7s-3.81,7-8.5,7-8.5-3.14-8.5-7,3.81-7,8.5-7m0-1.5c-5.52,0-10,3.8-10,8.49s4.48,8.49,10,8.49,10-3.8,10-8.49-4.48-8.49-10-8.49Z"/><path class="cls-11" d="M90,504.38c-5.1,0-9.25-3.47-9.25-7.74S84.9,488.9,90,488.9s9.25,3.47,9.25,7.74S95.1,504.38,90,504.38Z"/><path d="M90,489.65c4.69,0,8.5,3.14,8.5,7s-3.81,7-8.5,7-8.5-3.14-8.5-7,3.81-7,8.5-7m0-1.5c-5.52,0-10,3.8-10,8.49s4.48,8.49,10,8.49,10-3.8,10-8.49-4.48-8.49-10-8.49Z"/><path class="cls-11" d="M90,504.38c-5.1,0-9.25-3.47-9.25-7.74S84.9,488.9,90,488.9s9.25,3.47,9.25,7.74S95.1,504.38,90,504.38Z"/><path d="M90,489.65c4.69,0,8.5,3.14,8.5,7s-3.81,7-8.5,7-8.5-3.14-8.5-7,3.81-7,8.5-7m0-1.5c-5.52,0-10,3.8-10,8.49s4.48,8.49,10,8.49,10-3.8,10-8.49-4.48-8.49-10-8.49Z"/><path class="cls-11" d="M110,504.38c-5.1,0-9.25-3.47-9.25-7.74s4.15-7.74,9.25-7.74,9.25,3.47,9.25,7.74S115.1,504.38,110,504.38Z"/><path d="M110,489.65c4.69,0,8.5,3.14,8.5,7s-3.81,7-8.5,7-8.5-3.14-8.5-7,3.81-7,8.5-7m0-1.5c-5.52,0-10,3.8-10,8.49s4.48,8.49,10,8.49,10-3.8,10-8.49-4.48-8.49-10-8.49Z"/><path class="cls-11" d="M110,504.38c-5.1,0-9.25-3.47-9.25-7.74s4.15-7.74,9.25-7.74,9.25,3.47,9.25,7.74S115.1,504.38,110,504.38Z"/><path d="M110,489.65c4.69,0,8.5,3.14,8.5,7s-3.81,7-8.5,7-8.5-3.14-8.5-7,3.81-7,8.5-7m0-1.5c-5.52,0-10,3.8-10,8.49s4.48,8.49,10,8.49,10-3.8,10-8.49-4.48-8.49-10-8.49Z"/><path class="cls-11" d="M130,504.38c-5.1,0-9.25-3.47-9.25-7.74s4.15-7.74,9.25-7.74,9.25,3.47,9.25,7.74S135.1,504.38,130,504.38Z"/><path d="M130,489.65c4.69,0,8.5,3.14,8.5,7s-3.81,7-8.5,7-8.5-3.14-8.5-7,3.81-7,8.5-7m0-1.5c-5.52,0-10,3.8-10,8.49s4.48,8.49,10,8.49,10-3.8,10-8.49-4.48-8.49-10-8.49Z"/><path class="cls-11" d="M130,504.38c-5.1,0-9.25-3.47-9.25-7.74s4.15-7.74,9.25-7.74,9.25,3.47,9.25,7.74S135.1,504.38,130,504.38Z"/><path d="M130,489.65c4.69,0,8.5,3.14,8.5,7s-3.81,7-8.5,7-8.5-3.14-8.5-7,3.81-7,8.5-7m0-1.5c-5.52,0-10,3.8-10,8.49s4.48,8.49,10,8.49,10-3.8,10-8.49-4.48-8.49-10-8.49Z"/><path class="cls-11" d="M150,504.38c-5.1,0-9.25-3.47-9.25-7.74s4.15-7.74,9.25-7.74,9.25,3.47,9.25,7.74S155.1,504.38,150,504.38Z"/><path d="M150,489.65c4.69,0,8.5,3.14,8.5,7s-3.81,7-8.5,7-8.5-3.14-8.5-7,3.81-7,8.5-7m0-1.5c-5.52,0-10,3.8-10,8.49s4.48,8.49,10,8.49,10-3.8,10-8.49-4.48-8.49-10-8.49Z"/><path class="cls-11" d="M150,504.38c-5.1,0-9.25-3.47-9.25-7.74s4.15-7.74,9.25-7.74,9.25,3.47,9.25,7.74S155.1,504.38,150,504.38Z"/><path d="M150,489.65c4.69,0,8.5,3.14,8.5,7s-3.81,7-8.5,7-8.5-3.14-8.5-7,3.81-7,8.5-7m0-1.5c-5.52,0-10,3.8-10,8.49s4.48,8.49,10,8.49,10-3.8,10-8.49-4.48-8.49-10-8.49Z"/><path class="cls-11" d="M170,504.38c-5.1,0-9.25-3.47-9.25-7.74s4.15-7.74,9.25-7.74,9.25,3.47,9.25,7.74S175.1,504.38,170,504.38Z"/><path d="M170,489.65c4.69,0,8.5,3.14,8.5,7s-3.81,7-8.5,7-8.5-3.14-8.5-7,3.81-7,8.5-7m0-1.5c-5.52,0-10,3.8-10,8.49s4.48,8.49,10,8.49,10-3.8,10-8.49-4.48-8.49-10-8.49Z"/><path class="cls-11" d="M170,504.38c-5.1,0-9.25-3.47-9.25-7.74s4.15-7.74,9.25-7.74,9.25,3.47,9.25,7.74S175.1,504.38,170,504.38Z"/><path d="M170,489.65c4.69,0,8.5,3.14,8.5,7s-3.81,7-8.5,7-8.5-3.14-8.5-7,3.81-7,8.5-7m0-1.5c-5.52,0-10,3.8-10,8.49s4.48,8.49,10,8.49,10-3.8,10-8.49-4.48-8.49-10-8.49Z"/><path class="cls-11" d="M190,504.38c-5.1,0-9.25-3.47-9.25-7.74s4.15-7.74,9.25-7.74,9.25,3.47,9.25,7.74S195.1,504.38,190,504.38Z"/><path d="M190,489.65c4.69,0,8.5,3.14,8.5,7s-3.81,7-8.5,7-8.5-3.14-8.5-7,3.81-7,8.5-7m0-1.5c-5.52,0-10,3.8-10,8.49s4.48,8.49,10,8.49,10-3.8,10-8.49-4.48-8.49-10-8.49Z"/><path class="cls-11" d="M190,504.38c-5.1,0-9.25-3.47-9.25-7.74s4.15-7.74,9.25-7.74,9.25,3.47,9.25,7.74S195.1,504.38,190,504.38Z"/><path d="M190,489.65c4.69,0,8.5,3.14,8.5,7s-3.81,7-8.5,7-8.5-3.14-8.5-7,3.81-7,8.5-7m0-1.5c-5.52,0-10,3.8-10,8.49s4.48,8.49,10,8.49,10-3.8,10-8.49-4.48-8.49-10-8.49Z"/><path class="cls-11" d="M210,504.38c-5.1,0-9.25-3.47-9.25-7.74s4.15-7.74,9.25-7.74,9.25,3.47,9.25,7.74S215.1,504.38,210,504.38Z"/><path d="M210,489.65c4.69,0,8.5,3.14,8.5,7s-3.81,7-8.5,7-8.5-3.14-8.5-7,3.81-7,8.5-7m0-1.5c-5.52,0-10,3.8-10,8.49s4.48,8.49,10,8.49,10-3.8,10-8.49-4.48-8.49-10-8.49Z"/><path class="cls-11" d="M210,504.38c-5.1,0-9.25-3.47-9.25-7.74s4.15-7.74,9.25-7.74,9.25,3.47,9.25,7.74S215.1,504.38,210,504.38Z"/><path d="M210,489.65c4.69,0,8.5,3.14,8.5,7s-3.81,7-8.5,7-8.5-3.14-8.5-7,3.81-7,8.5-7m0-1.5c-5.52,0-10,3.8-10,8.49s4.48,8.49,10,8.49,10-3.8,10-8.49-4.48-8.49-10-8.49Z"/><path class="cls-11" d="M230,504.38c-5.1,0-9.25-3.47-9.25-7.74s4.15-7.74,9.25-7.74,9.25,3.47,9.25,7.74S235.1,504.38,230,504.38Z"/><path d="M230,489.65c4.69,0,8.5,3.14,8.5,7s-3.81,7-8.5,7-8.5-3.14-8.5-7,3.81-7,8.5-7m0-1.5c-5.52,0-10,3.8-10,8.49s4.48,8.49,10,8.49,10-3.8,10-8.49-4.48-8.49-10-8.49Z"/><path class="cls-11" d="M230,504.38c-5.1,0-9.25-3.47-9.25-7.74s4.15-7.74,9.25-7.74,9.25,3.47,9.25,7.74S235.1,504.38,230,504.38Z"/><path d="M230,489.65c4.69,0,8.5,3.14,8.5,7s-3.81,7-8.5,7-8.5-3.14-8.5-7,3.81-7,8.5-7m0-1.5c-5.52,0-10,3.8-10,8.49s4.48,8.49,10,8.49,10-3.8,10-8.49-4.48-8.49-10-8.49Z"/></g><path class="cls-6" d="M82.86,123.95C33,129.13,0,168.13,1,222.32V436.47C54.73,374.21,75.3,215.39,82.86,123.95Z"/><path class="cls-14" d="M238.74,287.24c7.85-24.82-29.56-63.45-29.56-63.45L0,256.43v210.7S191.48,436.6,238.74,287.24Z"/><path class="cls-14" d="M11,442.13c28.71,22.95,47.62,22.34,59.82,17,18.41-8.06,25-28.41,48.74-32,15-2.26,17.93,5,28.06-1,16.17-9.52,18.13-33.47,31.76-35,8-.9,11.69,6.79,16.25,3,6.41-5.33.48-21.71,7.39-33,6.54-10.7,17.15-4.64,23.63-11,7.36-7.22,16.17-49.17-4.31-123Z"/><path class="cls-15" d="M5,436.13c28.71,22.95,47.62,22.34,59.82,17,18.41-8.06,25-28.41,48.74-32,15-2.26,17.93,5,28.06-1,16.17-9.52,18.13-33.47,31.76-35,8-.9,11.69,6.79,16.25,3,6.41-5.33.48-21.71,7.39-33,6.54-10.7,17.15-4.64,23.63-11,7.36-7.22,16.17-49.17-4.31-123Z"/><path class="cls-16" d="M238.74,261.43c7.85-27.63-29.56-70.65-29.56-70.65L0,227.13V461.72S191.48,427.73,238.74,261.43Z"/><path class="cls-17" d="M239.74,249.43c7.85-27.63-29.56-70.65-29.56-70.65L1,215.13V449.72S192.48,415.73,239.74,249.43Z"/><g class="cls-18"><g class="cls-19"><g class="cls-20"><g id="u69G3v.tif"><path d="M185.43,274.94c6.51,3.7,12.42,7,18.28,10.41,1.63.94,3.84,1.75,4.58,3.22,3.46,6.89,6.57,14,9.6,21.05.51,1.2.63,3.52-.08,4.13-5.78,4.94-11.8,9.6-18.07,14.6l-24.3-21.09,24.29-5.17,4.52,10.85-17.33-4-.59,2.81,24.49,6.67c-2.25-4.91-3.58-7.77-4.87-10.64-4.47-10-4.42-9.8-14.85-7.25-6.72,1.64-13.59,2.65-20.4,3.94l-1.06,1.82,31,27.37,21.79-20.49-9.37-23.51c1.91.64,3.54,1.08,5.1,1.72,12.23,5,23.51,4.4,34.32-4.23,6.26-5,13.6-8.65,21-13.23l12.5,33.3-28.21-11.37c3.64-2.85,6.34-4.62,8.59-6.83a65.66,65.66,0,0,0,5.37-6.77l-1.42-1.14-20,15.48c13,4.87,24.57,9.66,36.48,13.49,4.34,1.39,10.45-8,8.75-13.48l-6.05,9.69c-6.51-8.36,3.22-13.07,2.78-20.27l-6.44,9c-8.71-7.91-.73-14.4,2.44-21.31l-1.75-.67-6,8.39c-7.32-6.68-.53-12.83,1-18.13L239.2,291.83,231.45,259l-24.84,12L227,286.68l2-2.41-17.1-12.67,17.33-8.22,7.13,29.1c-17.42-3.09-32.68-8.57-47.59-18.09l33.5-37.77,39.38,32.43c5.86-15.42,13.37-28.66,26.27-38.09L245.54,212.6c-.39,13.85.56,26.8,4.47,40.43l21.87-18.38-13.31-7.6-1,1.15,6.92,7.36-13.78,11.86-2.63-30.11,31.37,14.08L259,262.7c-9.74-7.77-20.15-15.67-30.08-24.13-7.78-6.62-7.48-6.91-13.58,1a28.68,28.68,0,0,1-4.83,5.16c-1.17.92-3.11,1.75-4.44,1.44-9.41-2.19-18.74-4.7-28.11-7.05-3.38-.85-5.6-2.53-4.4-6.33,2.58-8.18,5.33-16.31,8.33-25.43l15.58,11.24-15.68,6.84,14.44,13.88,16.32-12.75-30.07-22.3-10.52,18.47c-6.52-6.93-12.39-14.09-19.22-20.16-6.08-5.4-9.66-10.69-7.35-19.24,1.14-4.25.29-9,.62-13.5.61-8.61,1.42-17.2,2.24-26.9l43.25,28.16-30.1,22-7.22-12.46,11.47-8.26,1,.73-6.78,12.82c5.82-1.28,13.09-16,11.55-23.17l-22.2,17.38,11.42,18.67,18.85-15.7c10.12,6.79,19.51,13.13,28.95,19.4,5,3.31,9.78,7,15.14,9.57,6.76,3.2,20.27-.15,24.46-6.2l-17.63,4.75c3.66-10.71,16-6.55,22.08-15.4l-16.79,5.95c3.11-10.24,13.88-9.1,18.88-16.22l-10.76,3.55c0-10.76,11.38-11.14,16.76-17.1-9.45,2.14-18.12,5.8-27.13,7.09-9.31,1.33-18.94.36-29.54.4,6.39,8.6,10.34,18.16,20.06,24.12L234,187.72l-1.92-1.5-10.39,11.6-10.21-14.21,32.21-2.94-17.07,29.55L183,180.74l13.64-9.1-60.23-39.93c1.61,2.06,2.48,4.24,4,5,6.4,3,5.8,7.43,3.38,13l-11.43-8.4-1.18,1.47c2.58,2.38,4.83,5.37,7.83,7,4.85,2.63,6.14,5.83,3.82,11l-11.49-8.13-1.15,1.63c3.45,2.7,6.92,5.39,10.35,8.12,4.85,3.84,2.26,8.18,1.33,12.81l-12.06-8.46L128.44,168c6,6.28,17.5,9.64,12.33,22.09l-11.1-10.52c-3,2.2-5.44,3.9-7.76,5.78-11.87,9.6-23.77,19.15-35.44,29-1.48,1.25-2.94,4.94-2.21,6,4.74,7,10.09,13.65,15.16,20.29l37-31.54L123.07,195l-22.25,27.89,2.17,1.78,20.75-24.22,8,8.53-32,25.77c-3.56-4.28-7.31-8.4-10.52-12.9-.89-1.25-1-4.59-.09-5.36,13-11.1,26.29-21.93,40.88-34,13.64,14.5,26.65,28.2,39.42,42.11,1.27,1.38,1.78,4.21,1.45,6.16-1.45,8.5-1.61,8.54,7,10.89,9,2.48,18.1,4.84,27.06,7.23ZM166.8,517.1l.34,10.4,2.59,0-2.23-11.3,2.16-.21,5.62-1,.52,12.85,1.85-.15c1.39-8.24,1.15-16.42-1.94-24.37-2.71-7-5.38-14-8.6-20.76a9.1,9.1,0,0,0-5.61-4.25c-15.53-3.37-31.14-6.4-46.73-9.48-1.92-.38-3.9-.4-5.85-.59a13.3,13.3,0,0,0,6.34,3c11.52,2.58,23,6,34.63,7.41,10.23,1.27,16.2,5.59,18.82,15.55,1.53,5.82,4.23,11.33,6.5,17.24L152,516.91,151.91,496l5.6.6,2.83,12.93,2.18-.43-1.69-15.89-11.06-.09-2.49,38,1.84.56c.95-5.66-1.37-13.93,10.21-11.93L157,527.07l2,.08C160.85,523.3,158.46,516.15,166.8,517.1ZM110.57-50.07C100.49-47.16,99.3-54.77,98-62.25l-1.71,1.14L106-20l11.79-2.27-1.12-17.31-2.59,0,.86,14.81-7.61,1.14-3.46-23.12c7.55.5,14.19,1.16,20.84,1.3,4.81.1,6,2.13,4.92,6.52-1.85,7.51-3.84,15-5.08,22.63-.94,5.74-4,8.08-9.39,8.62-7.78.78-15.53,1.82-23.3,2.75L92.07-3c10.09-1.21,20.2-2.33,30.26-3.77a5.11,5.11,0,0,0,3.44-3.12c2.68-11.71,5.75-23.4,7.27-35.29.73-5.74-1.59-11.87-2.53-17.82l-2.43.46,1.79,14.44-6.61-.73-2.66-12.5-1.94.37,1.84,11.83c-9.34,2.82-8.08-6.38-12.39-10ZM289.35,154.48c-14.81,14.7-33,27.74-32.76,51.6l2,.88,2.38-12.45,5.36,2.16-1,11.43,1.62.13,2.24-9.86c8.71.57,4,8,7.24,13.41l.72-9.75c9.46.65,7.45,7.54,6.58,13.8l2.09-.31,4.39-37.8L279.24,176l-4.51,15.36,2.07.71L282,179.4l5.48,1.27-4.07,20L260.58,190.6Z"/><path class="cls-21" d="M161.75,272.82c-7.71,5.38-15.44,10.73-23.13,16.15-4.91,3.46-9.48,7.53-14.7,10.4-6.25,3.44-5.44,7-2.33,12.17,4.62,7.71,8.35,15.94,12.81,23.75,1.75,3.06,4.43,5.59,7.37,9.2,1.35-5,2.47-8.87,3.37-12.78a3.85,3.85,0,0,0-.89-2.42q-7.68-11.74-15.43-23.44l.87-1.82,27.7,4.53-7.17,19.49,1.15,1c3.79-3.57,7.57-7.14,11.38-10.7,2.89-2.69,5.6-3.53,8.65.06,7.62,9,15.43,17.81,23.15,26.71a24.88,24.88,0,0,0,2.88,3.45c11.23,8.89,22.53,17.71,34.34,27l26.55-35.84c-2.15-1.18-4.83-2.7-7.56-4.13-5.32-2.77-11.09-4.92-15.91-8.4-4.66-3.36-7.65-3.1-11.46,1-4.66,5-9.91,9.48-15.27,14.52l14.15,15,8.94-19.22,1.85.78-9.18,24.86L203,343.86c14.38-12,24.79-28.1,45-29.71-1.6,3.29-1.6,3.29-15.73,7.63,9.8,8.25,17.67-3.24,26.77-.37l-15.67,6.11c3.19,3.23,6.08,5,10.89,2.28,3.78-2.12,8.31-2.89,12.51-4.27l.87,2.83-13,4.4c7.17,10.51,16.84,1.92,25.19,3.07l.21,2.17c-4,.83-8.1,1.35-12,2.58-3.26,1-7.22,2.1-9.2,4.51-7.83,9.52-15,19.59-23,30.29,12.64,1.51,23.88,2.95,35.14,4.06,1.34.13,3.08-1.25,4.25-2.34,13.07-12.17,26.14-24.34,39-36.77,1.31-1.27,1.88-4.55,1.24-6.33-2.08-5.77-4.88-11.28-8.07-18.37L291.22,344.5l.79,1,18.35-9.89c-1.17,5.73-14.37,13.18-25.86,14.54l23.42-41c4.71,10.38,8.73,18.63,12.06,27.15.58,1.49-1.24,4.63-2.8,6.13-13,12.52-26.23,24.83-39.72,37.52A11.17,11.17,0,0,0,280.6,381c5.46.23,7.72,2.69,6.65,8.28a8.68,8.68,0,0,0,.82,5.51c6.57,11.48,13.35,22.83,20.83,35.52l21.2-29.53-21.6-6.6,4.95,22.22-2.85.69-6.75-27.45,29.83,8.62c-.53,1.46-.86,3.36-1.83,4.83-10.13,15.41-9.12,33.72-12.71,50.77-.56,2.65,5.23,6.64,9.23,11.36,7-11.74,2.93-22.57,3.47-33.16l11.3-.21-.37-38.49,12.31.82-5-12.71,1.77-1.21c4.94,7,6,18.82,19.13,15.83l-6.3-12.6c8,3.88,6.94,19.38,21.47,13.61l-9-17.39c8.8,4.32,13.91,18.33,11,27.71l8.89-8.36,9.54-9-20.9-26.49.82-1.59c5.07,3,9,11.75,16.15,4l-6.31-11c13.72,8.65,13.72,8.65,18.06,6.47l-5.11-9.8c1.59.23,2.16.17,2.25.35,3.38,6.94,8,9.51,15.74,6,1.32-.61,4.59,3,7.14,4.8l32.5-30.57-12.42-4.48,2.77-5.53-46.44-15-8.39,27.79,36.35-.24-20.58-16.59-4.39,9.89,13.55,1.7-.17,1.28L410,329.82l6.27-17.49,29.57,23.72-.35,1.65-55.63,1.12-.28-1.95c2.6-.32,5.69.12,7.68-1.16s2.69-4.23,4.23-6.93l-9.84-1.23.11-2,10.22-.09,2.1-7.28-8.55-1.22.08-1.79,9.35-.06,2.07-5.89-8.75-1.63.12-1.95c6.23.23,12.73-.6,18.63.91,11.83,3,23.37,7.25,35,11.18,5.47,1.85,9.78,1.72,14.42-2.81,5.25-5.13,11.77-8.94,19.1-14.32l1.19,13.58,13.75-12.94-50-5.24c.33-5.14.88-10.25.88-15.37,0-1.78-.85-4.36-2.18-5.2-8-5-16.24-9.58-24.33-14.43-3.86-2.32-6.86-2.06-8.93,2.24-3.5,7.27-7,14.54-10.86,22.66,7.76,1.57,13.93,2.82,20.11,4.05,3.94.24,7.88.51,12.07.79l-2.15-14.54-12.19,0,2.28,13.88-8-16.55,19.49,3,.59-3.29,3,20.68-37.24-5,5.5-20.2c-11.9.25-24.29.43-36.68.86a7.49,7.49,0,0,0-4.91,2.16c-10.25,11.81-20.31,23.77-31.32,36.75l50.69,10.51-6-36.78-13.94,3.49,2.16,13.17,1.58.4,3.83-12.67c3.48,3.46-.45,17.3-7.57,24.87l-4.11-28.6,20.85-5.31,6.24,42.63c-12.07,1.56-24.4,3.75-36.82,4.56-8,.53-13.14,2.71-15.58,11-3.13,10.69-7.35,21.06-11.29,32.08L355,362.39l-5.24-15.29L340.2,360l-2-1.31,11.92-19.3c3.5,9.57,8.35,17.25,8.42,25,0,5-6.86,10.14-10.66,15.21l-2.4-2,9.71-11c-9,.18-10.92,9.43-19.59,11.44l8.34-9.23-.83-1.42c-2.82,1.81-5.7,3.53-8.45,5.44-3,2.11-6,4.39-8.94,6.59l-1.44-1.78,7.5-6.45-1.08-1.6L315.07,380c3.49-7.31,7.33-14.46,10.35-21.93,3.7-9.15,6.88-18.52,10-27.89,1.71-5.16,4.64-7.53,10.29-7.76,7.63-.32,15.22-1.66,22.83-2.56l.22-2.57-49.54-8.6c6.31-2.57,16,3.61,17.65-8.08L323.4,299l.07-2c3.61.19,7.36-.16,10.8.7,5.21,1.3,8.26-.32,10-5.56l-14-2.06-.15-1.88c8-1.5,19.11,6.61,23.29-6.91l-14.67-2.69-.09-2c8.75-.49,19.71,6.45,24.53-6.4l-15,0c-1.2-8.74-2.13-16.35-3.37-23.92-.26-1.6-1.33-4-2.56-4.38-13.62-4.58-27.34-8.84-42.22-13.56l2.13,43,25-16.29-11.07-11.76-3.3,15.31c-3-2.89-2.23-11.15,1.82-21.5,6,6.33,13.43,11.53,16.6,18.64,2,4.49-2.45,11.85-4,17.92l-2.9-.85,4.21-13.35-1.8-1-9.23,17.66-1.9-.85,4.63-11.22c-9.05,3.11-7.27,13.94-16,18.65l4.6-10.5-1.43-.94L296.76,287.4c-.43-1-1-1.8-.85-2.16,5.65-11.12,1.67-22.69,1.62-34.05,0-8.36-.53-16.72-.89-27.22l46.89,14.46c-.69-7.33-1.13-14.89-2.19-22.37-.81-5.64.91-8.31,6.78-8.75,7.19-.54,14.33-1.66,21.22-2.49l4.4,48.87-19.57.28,3.63-35.74,2.89.24-2.27,32.1,11.67,0L365.45,209l-21.38,2.39L350.35,266c13.78-.16,27-.3,40.25-.49,4.52-.07,9-.47,13.54-.37,4.79.11,8.86-.59,11-5.63,2-4.7,5.22-3.92,8.85-1.8,8.69,5.06,17.47,10,26.3,15l4.42-32.33c14.81,4,29.27,10.41,43.25-.11l2.65,2.82-14.89,5.33c7.08,5.12,15.74,8.81,20.26,15.36,4.69,6.8,5.38,16.36,7.84,24.77,8.48-4.3,1.68-10.7,2.39-16.12l13.6,1.7L547.5,293,124.26,691.1l-22.1-23.5,26.76-42.06c-6.53-4.35-12.36-6.54-19-.77,2,.81,3.8,1.4,5.46,2.2,1.44.69,2.76,1.61,4.13,2.43-7.62,1.26-14.83-7.85-21.94,1.64,2.48,1.05,4.79,2.12,7.16,3s4.61,1.5,8.15,2.63c-5,1.41-19.71-3-21.11-5.53-.39-.7-.2-1.69-.44-2.51-2.47-8.59-5-17.14-7.41-25.75a35.61,35.61,0,0,1-.63-6.06l34.13,6.43L105,618.9l-12.26-9.4,1.3-2,10.86,6.42,6.32-8.37L88,601.78l7.41,25.37,31.51-14c-1.78-2.66-3.36-4.9-4.8-7.22-5.39-8.75-11.54-17.15-15.78-26.43-2.55-5.59-5.76-8.75-12.05-11l4.62,22.56L83.29,596.3l-36.67,2L44,576.12,34,595.18l-9.73-10.35,5.45,1.89,3.59,3.48L39.77,575l-.78-.49-9.25,12.43,3.12-11.87-14.76,3.2-1.77-1.88c8-1.62,16.08-3.19,24.09-4.9a3.89,3.89,0,0,0,2.11-1.78c2-3.4,3.92-6.88,6.31-11.13-2.82.11-4.77-.18-6.49.32-11.06,3.23-22.07,6.62-33.1,10L6.61,566c1.26-.74,3-1.17,3.69-2.27,6.65-11.4,13.11-22.91,20.52-36l-36.1-3.65L0,546.74,17,530.68l1.42,1.64L-2.09,551.66l-7.38-30.36,30.91.6-16.2-26c19.75-8.77,41.7-5.81,60.33-16.5L53.16,492.58l1.4,1.47,6.9-5.79L63,489.63,48.57,505.44l1.56,1.35L58.67,500l1.63,1.79L45.93,515.35l1.23,1.28,12-7.74c-2.5,8-13.51,13.16-19.55,10-5.31-2.8-10.58-5.68-15.84-8.58-.5-.28-.8-.94-1.91-2.32l19-8.78L42,501.39l-13.89,7.68,14.1,7.55,9.7-28.44L9.25,497c9.43,10.75,11.79,25.13,26.43,30.54L13.35,561.86c14-2.87,26.49-7.69,41.85-6.52-10.7,12.47-5.77,25.78-6.15,40.48l46.27-5.24-7.36-37-30,25,1,1.81,26.51,3-.31,2.67L55,583.44l-3.78-15.22,1.49-.66,4.16,8c7.24-4.6-1-12.32,4.27-18.34l1.64,11.86c10.17-4.37,3.21-13.88,7.93-20l1,12.6,1.38.9c1.8-2.69,4.44-5.17,5.17-8.13s-.49-6.37-.85-9.58l2.35-.37,1.79,9.74c8.29-1.69,1.67-9,5.33-13,.72.95,1.54,1.57,1.75,2.35,1.68,6.35,3.15,12.75,4.92,19.07a5.68,5.68,0,0,0,2.65,3.13c9.53,4.83,19.15,9.5,29.73,14.69l19.81-26-33.44-10.06-1.29,20.1,16.68-8.17-14.87-5.06.79-2.57,21.57,5.09.75,2.11-28.75,14,2.08-30.13,41.95,12.54,6.12-11.07c4.1,3.1,8,5.87,11.68,8.89q14.94,12.25,29.71,24.69c3.21,2.69,6,2.74,8.73-.68a13.82,13.82,0,0,1,3.57-2.71c12.44-7.74,12.5-7.76,6.45-21.41-2.22-5-4.77-9.9-7.39-15.29l-11.56,21.48,8.68,7.64L208.69,546l.14.17-.71,22.76c-3.24-2.67-8-6.41-12.53-10.51-.83-.76-1-3.29-.38-4.43,4.37-8.28,9-16.42,14.52-26.3l16.11,32,6.71-6.32c-3.39-6-6.73-12.22-10.29-18.28-2.39-4.06-3.13-7.29,2.25-9.65,1.76-.77,2.89-2.95,4.33-4.53,9-5.65,17.93-11.27,27.09-17l-7.15-5.14c9.24-4.87,17.62-9.41,26.17-13.62,1-.47,3.21.55,4.24,1.53,3.25,3.12,6.1,6.65,9.35,9.78.9.87,2.65.87,4,1.26-2-3.28-6.22-4.9-6.41-6.92-.8-8.32-.39-16.75-.43-27l17.73,13.84-1.48,2-13.37-8.93.49,16.82c8.87-3.19,19.43-.94,24.71-11.32l-22.7-26.69c-20.14,15.72-39.35,30.87-58.79,45.72-3.07,2.34-3.63,4.63-3.46,8.1.29,5.87,0,11.78,0,17.67l-5.59-43.64-38.95-8,10,31.26,14.65-1.8-14-17.25,1.36-1.09,19.18,20.39-23.44,4c-3.95-11.89-8-24-12-36-.27-.81-.78-2.06-.43-2.47,3.54-4.21,7.24-8.28,10.9-12.39l2,1.59L186,465.2c4.2,2.87,7.48,2.53,10.31-2.15,1.38-2.28,3.56-4.08,5.38-6.09l1.46,1.09-6.85,10.12c9.89,3.8,10.56-8.06,18.12-8.82l-8.06,10.23c2.86,1.53,2.86,1.53,15.41-6.38l-8.06,10.11,15.58-1.78L227.56,493l1.74.61c6.3-5.07,12.57-10.18,18.91-15.21,12.79-10.16,25.73-20.14,38.37-30.49,3.25-2.66,5.31-2.74,8,.42,7.18,8.56,14.5,17,22.06,25.84l8.26-7.77c-.12-.4-.13-1-.37-1.12-9.49-4.64-10.35-12-7.58-21.28,2.06-6.93,2.82-14.25,4.33-22.34l-14.33,13.48-19.39-37.8-2.29.43c-1.74,6.51-3.69,13-5.19,19.53-2.19,9.63-4.06,19.33-6.3,30.14L271.22,435l-8.08-2.34,2.53,12.85c-6.17-4.53-1.06-16-13.49-16l3.09,13.27c-4.94-1.32-5.49-5.16-5.47-8.32.05-6.34-2.7-9.38-9.19-9.65L243.34,440l-2.4.45c-1-3.78-2.47-7.52-2.79-11.36-.51-6.1-3.68-8.59-9.39-8.72q1.82,8.66,3.65,17.32l-1.94.45c-5.56-6.14-.09-17.11-8.41-21l23.21-30.77,27.49,25-.29,1.85-34.93.86-.17-1.73c8.68-3.82,18.18-.83,28.32-2.48l-19.89-18.64-17.53,24.63,44.59,16.5,11.75-47c-16.48-2.45-31.93-4.85-47.42-6.9-2-.26-4.23,1.28-6.71,2.1l-28.69-25.3-21.09,14,34.91,10.13-4.94,41c-8.27-4.34-15.3-8.21-22.51-11.71-3.31-1.61-7-2.48-10.48-3.68h.18l-5.43-5.77,17.92-21.36c5.93,9.49,8.23,19.49,10.27,30.27L181.12,397c2.72-1.58,2.72-1.58,15.39,4.2l-6.27-17.73-13.07,15.36L207.94,415l4.24-32.4c-11-3.68-21.5-7.27-32.06-10.57-1.29-.4-3.19.49-4.58,1.23-5.95,3.14-11.81,6.45-18.79,8.78,1.52-1.55,3.4-2.88,4.46-4.7s1.45-4.3,2.62-8l-11.16,7.74c1.18-8.3,14.62-9.32,7.47-18.71l-10.81,9c1.87-8.87,14.35-10.42,9.78-20.64l-8.54,6.45-1.16-1.21,11.74-12.84-1.41-1.58-8.86,3.25-.84-1.58,13.57-8.35,23.29,19L185.26,352l-20.83-16.11-2.16.59,3.94,38.63,31.08-21c-7.16-9-13.47-17.82-20.77-25.78-10.22-11.15-7.18-11.43-18.63-.53-9.34,8.89-9.25,9-14.31,22.33-11.77-8.15-16.09-21.28-23.08-32.36l-1.95-.1L111,357c-4-1.09-7.61-3.24-10.78-2.72-9.48,1.55-18.78,4.15-29.38,6.63l23.82,35.64,13.06-26.9-15.57-4.91,5,15.46-2.36.86L86.4,360.29c7.22,1.92,12.82,3.26,18.34,4.9,8.93,2.66,13.27,11.26,9.6,21.44l-3-13.53L109.5,373c0,3.23-.19,6.46-.07,9.69.13,3.41.53,6.81.81,10.21l-2.18.24L106.5,381c-6.52,7.05.31,15.68-4.75,22.62l-1-8.7-2.06,0-.4,17.78C93.13,394.5,79,382.25,70.68,366.59c-1.18-2.23-2.48-4.41-4.49-8l30.35-7.43-22-21L101,312.9l1.52,28.61-2,.23C97,334.8,99.68,326.79,97.64,319L79.15,331l29.34,23.44c1.38-8,2.27-13.88,3.45-19.73,1-4.83,1.8-9.77,3.54-14.34,1.82-4.79,3.18-9,.16-13.93-.74-1.22.62-5.05,2.13-6.11C129.69,292,141.89,284,154,275.89c.85-.57,1.73-1.11,3-1.94-5.87-3.69-10.19-5.5-16.82-.81a515.51,515.51,0,0,1-47.75,30.31c-18.28,10.15-37.55,18.49-56.12,28.14-7.34,3.82-14,8.94-20.83,13.73-.92.65-1.47,3.2-1,4.27,5.38,11.11,11,22.09,16.84,33.6L50.1,356.79,39.9,345.94l-5,21.41-2.8-.66,5.75-26.75,17.25,16.21c-7.07,10.06-14,20.19-21.32,30.09a7.78,7.78,0,0,1-5.42,2.49c-4.35.14-8.73-.4-13.1-.67l0-3,11.83-.41-2-6.56-14.44-.91,0-2.2,11.46-.25c-.83-5.48-.82-5.57-7.21-6.29-3.38-.38-6.81-.39-10.21-.57l.08-3.14,14.18,3.78c-2.27-12-10.75-6.9-15.62-11.4L14,360.28c-1.24-8.63-3.17-13.69-10.2-12.91L30.73,331.2c-6.45-2.65-11.29-4.69-16.18-6.62-4.4-1.73-8.85-3.31-13.27-5-11.52-4.41-11.48-4.38-20.18,4.71-7.56,7.9-15.22,15.7-23.71,24.44l25,20.89,14.91-33.8-1-.87L-24.9,347.89l8.61,9.16-1.37,1.43-12.88-10.67L2.25,327.73,4,329l-20.09,46.06-32.25-26.53,21.92-20.62c-8.12-5.6-15.44-10.68-22.81-15.68a4.24,4.24,0,0,0-2.45-.53c-17.78.93-35.56,1.9-54.19,2.91l29.67,41.76,20.1-24.92-28.44-5.7,9.92,17,10.63-10,1.81,1.71-12.95,14.67L-92,320.74l43.1,7.73-27.51,35-35.56-52,54.15-2.91-26.58-28.26,1.09-1.3,7.9,6.85c8.17-5.72,1.62-9.91-2.09-14.43l1.29-.87,6.9,7.34,6.39-7.75L-70,260.77l1.27-1.14,7.23,7.68c9.16-5,4-10.9.44-16.7l1.94-.71,38.29,52.23-.82,1.39L-65,292.19l12.82-19.29L-39,288.5-40.61,290l-11.07-11.77L-59.56,290l32.36,8.66-26.4-35.29c-6.69,8.66-12.83,16.21-18.34,24.2-.77,1.12.88,5.26,2.53,6.48,9.82,7.28,20,14.06,30,21.12,4.72,3.34,9.27,6.91,14.46,10.8l11.1-9.56c-.83-4.75-2.2-8.22-1.86-11.52.81-7.83,2.44-15.57,4.09-25.43L21.2,314.3C10.63,313.07,1,312.82-7.47,307.6l.4-1.91,21.22,5.2L-9.46,285.8l-4,24.16c10.47,4.13,21.51,7,31,12.57,12.38,7.29,22.72,3.9,33.9-1.84,13.11-6.73,26.57-12.79,39.92-19.06,5.77-2.71,6.63-5.37,2-9.86-13.43-13-27-25.87-40.9-38.4-1.38-1.24-6.13-.87-7.69.55-9,8.16-17.54,16.87-27.18,26.32l43.84,25.24,1.42-1.23-9.17-37.31L38.48,281.18,49.63,289l-1.21,2L31.84,282.6,55.9,260c3.76,16.35,7.19,31.07,10.45,45.82a5.44,5.44,0,0,1-1.07,4.08c-2.54,3-17.47,4.89-22.87,2.29l17.2-2.79c-9.1-11.87-19.52-4.65-29.59-1.73l-.47-2.31L42.61,300c-7.16-11.06-15-1.56-22.5-.42l-.53-1.66,10-5.47C23.12,282.22,14.27,287.12,6,290c0-1.45-.12-1.78,0-1.83,10.69-6.26,15.88-17.72,24.51-25.92,3.11-3,6.05-6.17,9.5-8.68,8.86-6.45,9-6.31,18.43-.62-4.62-6.28-9.23-12.56-13.9-18.8-.32-.43-1.14-.56-1.76-.66-19.44-3.39-38.88-6.75-59-10.23l-5.64,36.68,37.38-.68L1.38,236l-9.91,9.32,13.13,9.59-1.4,1.88-16.84-9.62,15-17.6,21.22,33.63c-2.35.24-3.86.49-5.39.52q-19.92.41-39.84.76c-.84,0-2,.51-2.47.13-6.39-4.77-12.39-9.93-15.48-17.86l14.24,13.12c3.77-6.43,3.79-11.59-2.29-16.06-2.48-1.83-4.35-4.49-6.5-6.78l1.4-1.51,10.27,9.56c6.64-11.52-3.85-16.07-9.6-22.47l1.51-1.62,10.43,7.62c6.51-10.08-3.89-13.47-8.39-19.23l1.32-1.48c3.11,2.4,6.11,5,9.36,7.16,2.92,2,5.93,4.34,9.24,5.12,16.66,4,33.44,7.47,50.69,11.24a13,13,0,0,0-.17-2.58c-4.73-10.24-4.76-10.26,3.33-18.81,5.14-5.43,10.38-10.76,16.42-17l21.88,46.73-1.61,1.43-34-20.54,10.3-12.85,2.16,1.47L52.84,220l23.3,13.8-16.47-35-21,22.09,52.59,67,1.69-.75-2.84-34,30.58,22-18.55,11.69-3.11-19,2.07-.66L105.33,281l11.06-6L93.34,259.15l4.43,37.17,46.84-28.62c-5.59-2.63-11.19-4.37-15.67-7.63s-7.89-8.06-11.77-12.18l1.24-1.26,8.76,9.31c6.88-7.42-1.65-10-3.63-16.3l8.94,7.47c7.17-4.78-2.34-8.32-.58-13.58l5.25,6.55c3.13-3.25,3.13-3.25-.13-15.82L161,253.67,153,261.11l-12.21-10.48,1.3-1.78,11,7.62,4.4-3L143,238,130,257.77l28,13,13.65-27.61,1.63.77C170.21,251,167,258,164,265.17a71.79,71.79,0,0,0-2.31,7.84ZM141.08,621.1c-6.58-6.56-10.19-7.07-16.68-2.34,2.32,1.63,5.46,2.78,6.8,5,3.12,5.18,5.38,10.88,7.95,16.3l14.63-13.76c-3.68-8.22-10.92-1.77-16.75-2.17l-.12-1.82,4.17-1.37c1.75-1,3.79-1.68,5.22-3,15.34-14.29,30.58-28.68,46.15-43.33l-34.62-30L147,576.91,177,581l-14.74-21.29c-3.27,5.67-4.35,11.52-10.79,13.18l9.72-20.22c6.29,9.13,12.13,17.16,17.48,25.51,3.7,5.77-.57,12.75-8.75,13.78l6.67-7.31c-8.2-3.55-10.08,5.69-16.4,6.09l6-7c-8-5.94-11.77,2.45-17,5.68l-.73-1.39,4.88-6.27c-7.18-5.3-10.33,3.07-14.89,4.55l11.35-29.07-1.48-.69c-6.4,8.31-12.88,16.55-19.16,24.95-2.17,2.91-4,3.85-7.38,1.51-3.85-2.66-8.17-4.63-12.29-6.89a46.43,46.43,0,0,0,6.84,15.15C123,600.6,127,612.66,140,616.2,140.77,616.4,140.75,619.42,141.08,621.1ZM454.16,293.53c16.36,1.41,31.76,2.81,47.18,4,4.89.39,9.68-4.08,8.82-8.25-1.58-7.7-3.46-15.34-5.26-23.22L476.34,284l-9.22-25.92,25.56,3-.35,2.93-21.1-2.48,6.59,17.88L503,263.56c-14.35-10.6-29.38-16.35-46.26-20.63ZM347,396.69,345.12,433c6.18-1.45,13.14,4.3,18.93-3.32l-15.16-14L371,405.71l.14,16.44-2.23.18-2-11.76-11.83,6.35L367,426.77c8.88-6.9,16.33-14,18.2-24.9Zm-95,133.38c5.35,1.07,10.34-2.77,23.15-16.84-12.34-8.59-13.8-8.63-25.55-.8-.54.36-1.15.6-1.68,1l-24.75,16.75L235,550.56c6.27-3.16,8.31-7,4.41-13-1.68-2.58-2.54-5.71-3.3-7.46l11.69-11,1.31,1.22-5.18,7.24,1.13,1.92L260.29,522l.71,1.43ZM204.26,582l-8.71-4.88-45.08,42.41L157.6,624l4.15-3.9-3.61-.78Zm81.41-76.81c.41-2.45,1.36-4.42.76-5.21a94.57,94.57,0,0,0-9-10.08,4.33,4.33,0,0,0-3.94-.6c-6,3-11.86,6.24-18.92,10,7.93,3.82,14.54,7.27,21.4,10.1,1.54.63,4-.89,6.54-1.56l-8.23-12.59L276,494ZM408.32,387.54l2.11-.86L407,376.22c5.78-1.92,11.51-4,17.37-5.71,7.6-2.18,8-3,3.05-10.47l-30,12.33ZM131.71,649.87l-3.15-8.94,1.42-.72,4.76,5.06c3.36-3.55,1.43-8-5.87-13.67l-19.25,30.88,1.46,1.45ZM335.57,456.23l20.84-19.61L335,434.79ZM481.9,305.72l-21.38,20.11c4.57-.4,10.71,9.28,13.67-2.09,0-.13.33-.23.52-.27C484.56,321.73,483.28,314.78,481.9,305.72Zm-336.41,5.48,2.19.26-1.57,14.13.94.15,5.74-14.84-20.16-3.75,10.18,15.43Zm94.08,219.33,5.09,11.22,8.31-7.82ZM381,437.92l.68-2.78c-3.6-1-2.09-8.67-8.28-5.76-.44.21.55,5,1.93,6.95C376.25,437.58,379.07,437.44,381,437.92Zm4.54-12.84-.66-.67L381.83,427l.85.79Z"/><path class="cls-21" d="M-37.6,10.19l4.6.73-4.46,22.84L7.8,10.19l1.13.37c-2.07,3-5.17,5.67-5.92,8.92-.79,3.41.68,7.34,1.3,12l8.09-7.61C12.33,30.69,1,34.83,8.79,43.16L16.42,34l2.51,1C9,43.9,8,54.42,12.15,66.32-2.67,61.88-14.52,53.37-28.12,44.73L-3.47,29.45-.27,46.6l-2.27.6-4-11.53-15.52,9L6.63,61.56l1.48-.92-10-42.24C-11.64,23.5-20.57,28-29.33,32.79c-4,2.21-4.92,5.2-3.2,10.15,4.77,13.79,8.33,28,13,41.84,2.33,7,2.33,14.69,9.94,20,5.62,3.95,8.41,11.75,12.91,17.49,4.9,6.26,10.18,12.24,15.6,18.07a6,6,0,0,0,5.25,1.4c6-2.2,11.81-5,19.05-8.09L14.81,117.15l-1.16.68,9.51,18.29c-5.87-1.56-13.4-15.43-13.72-25.55l11.07,6.76L13.87,71.89l8.77-.29-5.27-9.14c7.35.94,6.48,13.79,16.93,9.8L28.86,61.52l1.49-1c1.23,1.64,3,3.1,3.6,4.95,2.25,7.43,7.14,9.94,15.27,8.42L41.48,61.69l1.3-1.16c1.66,1.76,3.65,3.32,4.92,5.33,6.47,10.27,7.54,10.9,21,10.68C66.52,74.2,64.58,72,62.51,70c-1.89-1.88-3.91-3.63-6.83-6.32,6.22,1,16.81,10.61,17.33,15,.16,1.38-.8,3.18-1.78,4.34a63.35,63.35,0,0,1-5.45,5.24l27,19.9,25.65-19.78L94.84,81.83,89.34,92.06,107,89.68l.37,2.51L82.79,97.56,93,77.39l18.45,5.78c-2.48-19.21,4.28-38.49-4.59-56.86L73.31,49.42c3.51,4.69,6.73,9.12,10.14,13.39.49.62,1.89.65,2.88.69.58,0,1.16-.5,1.77-.73,15.55-5.71,15.55-5.7,6.55-19.73A8.65,8.65,0,0,1,94,40.6c4.13.78,11.95,9.11,11,13.1-.7,3-4.06,6.2-7,7.72-13.48,6.9-13.59,6.7-23.25-5.09-6.16-7.52-6.19-7.66,1.68-13,10.08-6.84,20.23-13.58,31.7-21.26l6.06,18.48C118,33,122,25.38,125.91,17.69c2.92-5.76,5.89-9.41,13.8-6.44,5.75,2.16,12.68,1.16,20.07,1.64.68,13.63,1.57,27.68-.74,42.46L133,35.63l9.16-20.33,11.12,22.75-2.17,1.34L142.2,24.15l-4.92,10.23,20,15.15-.53-32.81-25-3.06c-2.74,5.1-5.72,11.47-9.43,17.39-6.76,10.77-9.08,22.24-7.69,34.84.63,5.68-.27,11.53-.49,17.62l9.49,1.66.93,2.15L93,112.41C83.28,105.18,75,98.73,66.41,92.87c-1.42-1-5.33,0-6.85,1.36-2.61,2.41-8.48,2.7-6.76,8.55Q62.22,134.92,71.68,167a15.4,15.4,0,0,0,1.12,2.14l35.78-11.73L91.33,124.34,76.57,148l13.24,4.13L92,136.42l2.34.09-.54,19.31-22.69-5.42,21.27-35c1.72,4.22,2.53,6.82,3.78,9.19,5.38,10.21,11,20.32,16.27,30.57a10.44,10.44,0,0,1,1.23,6.34,126.74,126.74,0,0,1-4.3,14.83c-.59,1.73-2,3.19-3,4.77l-1.41-.74,6-19.09c-7.58.37-12.74,2.12-13.79,10-.39,3-2,5.77-3.07,8.65l-2.18-.7,4.16-13.37c-13.28-.83-12.94,10.38-15.53,19l-2.3-1L81,169.27c-3.9,2.25-8.18,3.44-10.23,6.25-2.2,3-2.29,7.55-3.31,11.42l-2.08-.28c.41-2.59.34-5.39,1.34-7.74,2.48-5.88,2.15-11.54.39-17.52C61.32,141.86,55.82,122.24,50,102L35.53,112.44,29.25,81.11,48,83.89l0,2.39L33.9,86l3.94,20.69L67.57,82.27l-.33-2L17.05,74c2.17,13.49,4.19,26,6.21,38.52,1.08,6.69,5.22,10.42,11.36,12.92,4.81,2,9.16,5.07,13.54,7.56-.48,1.38-.55,2.07-.76,2.12-17,4.08-21.21,20.54-30.52,32-4.15,5.1-6.88,11.35-10.37,17-2.08,3.37-1.84,5.79,1.9,7.87,7.84,4.35,15.54,9,24.35,14.06l11.75-42.14L17.74,183.46l11.13,8.13,5.46-15.17,2.49.72-5.48,19.62L11.43,183.83l36-26.4,1.62.74L32.26,222.49c-4.5-15.56-4.5-15.56-7.84-17-1.22,3.15-2.42,6.3-3.7,9.42-.1.25-.75.28-2.36.8l3.42-12.35-8.39-4.69-3.52,9.56H7.94C7.41,203,15.64,195,4.29,193.37l-4.72,9.28C1.1,179.05,17,162.94,29,144.08c-4.71.18-9.37,6.56-12.52-1.76l-24.27,44c-6.83-4.55-13.34-9-19.93-13.24-1.55-1-3.34-2.13-5.09-2.28C-43,169.9-53.3,169.29-64,168.55l12,47L-24.35,193l-25-11.57c.42,6.78,6.56,12.67,2.5,21.31l-7.74-26.55,35.52,14.55c-5.87,5.52-12.44,11.76-19.09,17.92a46.84,46.84,0,0,1-5.11,3.93c-3.24,2.26-7.19,6.83-9.67,6.15-5.84-1.61-11-5.74-16.4-8.86l1.37-2.4,11.69,7.29c-.34-6.42-2.39-10.34-8.1-12.6-3.43-1.36-7.81-3-8.9-9.67l13.69,9.61c-1.16-7.36-.76-13.67-8.85-16.12-3.28-1-5.88-4.25-8.79-6.47l1.34-1.92,13.72,9.29L-68.71,168l33.48,0-4.32-5.58L-20,144l-27.73-23.24,6.75-9.58-10.76,1.95c2.23-5.64,10.88-.88,10.92-8.48l-13.67,2.21,2.28,40.42c-5.55-7.57-2.43-19.55-13.94-21.74l1.48,11.73c-6.6-6.46-2.35-17.59-12.45-22.88l2.48,17.2c-7.1-6.62-.74-18.27-10.74-24.46l1.31,18.59-3,.18c-.34-5.92-.57-11.85-1.09-17.76-.19-2.14-.48-4.69-1.74-6.23-6.52-8-13.36-15.73-20.08-23.56l2.82-2.65,19.83,25.44L-49.47,61l-22.93-18,2.82-2.65,26.22,21,5.82-47.51-2.88-.95Zm23.49,96.16-18.5-17.91-8.6,32L-17,142.86-1.84,131.5l1.53.86-11.28,37-13.62-10,1.31-2L-13,163.68l7.07-23.74-1.27-.52-28.87,22.85,26.38,19.05c7.72-12.45,15.1-24.24,22.31-36.14.85-1.4,1.61-4.11.9-5C5.39,130-3.06,120-11.93,109.4L-21,122.59l-9.27-22,2.49-1.11,7.48,16.05Zm-38.69-3.08c11.18-.88,13.07-1.84,13.55-6.68l-8.9,1.33-1.57-2.52c9.93.7,13.89-5,15.61-13.84l13.74,14.6,1-.54-17-56.42-1.51.39-2.49,27.08-6.36-3.11-37.48,39.83L-58.27,127l3.48-34.85-16.11,8.93,9.68,12.79-1.76,1.4-14.12-15,27.74-14.53L-48,87Z"/><path class="cls-21" d="M-81.17,470.55c1,1.09,1.78,2.66,3,3.21C-66,479.1-53.8,484.27-39.84,490.24l-6.8-28.36,13.57-.21.33-1.74-8.72-8.15c7.42-1.09,9,11.3,17.12,5.38L-33.89,447c7.78-.78,9.79,12.14,19.45,6.47l-8.87-8.54,1.43-1.59c2.2,1.74,4.78,3.16,6.51,5.29,3.34,4.1,6.51,4.13,10.91,0l-7.84-8.33,1.42-1.41c6.5,5.38,13.25,10.48,19.41,16.2,6,5.56,11.17,12,17.13,17.54,1.52,1.42,5.05,2.29,6.89,1.53,12.69-5.23,25.18-10.95,38.52-16.86L32,429.77l-14,21.51,21.34,10.89L39,442.72l2.44-.15,2.12,24.59-29.4-14.24,4.54-8.83c-7.21-6.68-14.32-13.17-21.28-19.82-1.31-1.25-2.93-3.16-2.88-4.72.41-12.66,1.18-25.31,1.89-38,0-.51.67-1,1.05-1.5L22.2,400l-9.91,20.09L2,396.81l2.28-1.19,8.24,15.71L17.89,401-1.44,385.51c-.22,11.8-.55,22.62-.49,33.43,0,1.61,1.6,3.51,2.94,4.75,6.3,5.82,12.76,11.46,19.86,17.78L31.56,424.3l13.07,10.95,1-.57c-1.69-5.67-3.29-11.37-5.08-17-2.69-8.48-5.52-16.92-8.33-25.51l7.88,7.39,9-6.38-6-8.08L44.27,384l7.13,6.6L59.13,385l-4.31-9.31,1.08-.59L61.43,383l6.68-5.34-7.32-9.47a21.46,21.46,0,0,1,12.79,17.38c1.37,13.22,2.94,26.41,4.5,40.36l-24.53.79-1.26-29.19,17.17,12.28-1.24,2.07-13.75-8.23,1,20.08L74.61,423l-5-41.9c-9.39,7.45-18.33,14.33-26.95,21.6-1.28,1.07-1.82,4.13-1.38,5.94,2.27,9.16,4.8,18.27,7.65,27.26a12.16,12.16,0,0,0,4.59,5.69c7.52,5.2,15.28,10.06,23.68,15.53l-6.07,4.42a18.62,18.62,0,0,0,.49,2.31q7.11,21,14.25,42c2.61,7.69,2.57,7.57,10.14,4.81,8.59-3.14,17.28-6,26.14-9.11L93.6,482.43l-1.1,18.12L108.76,498l.61,2.37-19.73,5.85.25-32,1.86-.43,7.12,7.57c.25-3.13.36-4.94.55-6.73,2-19.66,4.15-39.31,6.12-59,.36-3.6,1.84-5.12,5.58-5.48,9.79-1,19.54-2.37,30.44-3.74l-15.74,48.79-2.14-.17-9.8-36.17,15.37-3.57,1,2.5-11.72,4.24,6.79,24.21,11.57-35.84L108.45,414c-1.54,14.59-3.14,29.09-4.57,43.6-.61,6.2-.06,12.64-1.5,18.61-1.54,6.36,1.13,9.68,5.83,12.5,9.49,5.72,18.62,12.22,30.06,13.72,1.15.15,2.21,1,3.35,2.53-8.17,1.93-17.55-6.18-24.55,2.87l11,4.06-.69,2.14c-4.13-1.12-8.2-2.59-12.39-3.25-4-.63-8.12-.4-12.2-.55l-.38,2.17,16,5.62c-9.2,3.21-16.28-7.22-26.93-2.22l17.37,7.87-1,2c-8.32-1.86-16.23-4.83-21.83-11.92a29.75,29.75,0,0,1-4.42-9.25c-4.42-13.66-8.62-27.39-13.18-42-11.24,4.87-22.16,9.06-32.55,14.31-5.92,3-9.39,2.18-13.52-2.82-6.08-7.36-13-14-19.55-21l-2.34.84L-4,486.62l-23.26.43,13.46-21.7,2.49,1.46-11.21,19,14.74-.24,5.22-32.43-38.38,14.07c1.49,21.16,11.62,39.8,17.47,59.68,1.08,3.68,2.34,7.31,3.51,11l-5.31-5.64c-4.53-12.37-9-24.74-13.65-37.08a4.24,4.24,0,0,0-2.17-2.15c-11.22-4.54-22.47-9-33.72-13.44L-81.86,472Z"/><path class="cls-21" d="M193.32,56.31c.16,1.84.87,3.82.4,5.48-2.26,8-4.84,15.84-7.9,25.68L170,62.11l19.11-7.45L162.58,17.39l34-20.51,1.17,1.27-5.57,7.91,1.06.75L200,3.06c1,6.9-11.77,6.37-6.29,14.24l9.29-7c-1.39,8.12-11.71,8.43-10.35,16.42,16.21-7,16.24-24.06,24.18-37.09-7.82,4.8-9.46-.88-11-5.67-3.88-12.27-7.42-24.65-11-37-.15-.5.27-1.17.74-3l30.83,24-14.1,9.22-1.43-2,9.76-7.76L201.55-47.46l-1.3.92,10.53,34.78L238.07-29.2,216.63-58.77l26.54,28.22c-5.84,4.57-11.78,9-17.48,13.76-2.38,2-5,4.21-6.25,6.91-4,8.77-7.44,17.81-11.06,26.69l46.55,5.63-11.2-33.67L223,8.28c5.2,0,8.78-.31,12.24.16,3,.41,5.83,1.74,8.74,2.67l-.6,1.81-26-2.26L244.49-18.1C246.67-12.18,249-5.95,251.26.34c1.78,5.06,2.87,10.42,5.16,15.23,2.92,6.13,1.55,10.44-3.78,14.1-3,2.06-5.85,4.31-9.77,7.22l21.52,12.89c-6.73,7.78-12.84,15.46-19.65,22.46-2.9,3-3.58,5.52-3.38,9.51.48,9.36.13,18.76.11,28.67l-30.67-9L231.41,82,233,83.47,217.12,99.93l21.24,6.19L237,68.55c-5.73,3.44-9.57,5.88-13.54,8.09-5.42,3-10.8,6.19-16.46,8.67-4.79,2.1-9.38,3.69-11,9.6-.35,1.28-4.11,2.76-5.89,2.35-15.66-3.6-31.23-7.61-47.22-11.59L147,96.92l0,.26c1.62,6.18,3.86,12.28,4.69,18.57.73,5.51-.1,11.22-.25,16.85l-2.8-.19,1-11.64c-10.5-2-4.21,8.66-9.53,11.84.29-4.17.51-7.44.73-10.72-4.8-.18-4.8-.18-10.16,8.47l1.16-7.41c-8.61-1.88-9,4.47-10.65,10.23-.67-11.62,4.14-21.83,7.6-33.31l16.12,8.95c-6.47,2.49-9.46-2.72-14.4-4.57l-5.27,16L148.9,117l-8.42-29.16L99,119.44l-1.32-1.67,42.56-34.25c-11.16-14.88-10.32-17,.64-29.92L165,70.13l-21.81,9.2-1.85-14.15,2.19-.53,3.16,9.14,10.82-4.27L142.09,58.7c-6.53,4.18-7.7,8.41-4.74,14.94,2.58,5.69,5.93,9.12,12.72,10.53,14.24,2.95,28.17,7.35,42.26,11.16,3.44-8.16,6.77-15.1,9.29-22.32s4.2-14.7,6.52-23l-14.84,6.34L175,64.26l10.3,17.53,4.63-17.69-10.71,5.1-.68-1.32Zm45.26,3.34c-.47-14.47-1.56-27.21,14.31-33.48-6.13-1.59-10.71-2-14.76,2.77-2.47,2.93-5.72,6.13-12,4.69l13.09-8.8c-7.69-3.09-13.81-3.41-19.08,3.19-1.8,2.26-5.22,3.22-7.9,4.77l-1.19-2,11.72-8.11c-15.51-7.6-23.49,5.74-34.26,11.88L175.43,18.93l1.74-1.46,11.68,12.41,1.06-23.74-1.79-.87L167.58,18.74l25,34.51,17.74-8.69c1.28,14.82-5.08,26.93-8.42,40.76l35.48-20.66,3,7.35L258.8,50.46l-16.06-9.28-1.14,11.5,8.14-3.39.92,1.75Z"/><path class="cls-21" d="M432.5,170.72l-6,1.4c1.81,9.78,3.49,19.45,5.42,29.06,1.14,5.68,3.33,11.21,3.88,16.92.45,4.67,2.39,7,6.28,9.16,8.41,4.7,9.8,4.84,18.22-1.58L450.1,208.8,445,219.6l9.19,3.26-.65,2.36-13.87-2.42,9.83-21.47L465.05,226c-11.25,10.83-16.38,10.81-29.79-.68l-11.06,29.16-1.58-.52,9.45-29.67L403.17,214l-4.57,23.24,20.45-.48-.1-5.76-13.45-2.18.38-2.31,16,1.13.59,10.93-37.82,4.11-.74-1.91c6.47-.42,13.51-.2,12-9.52l-9.35,1.54c4-4.55,13-1.6,11-10.29l-10.2.53-.18-2.12,11.29-1.12,1.45-5.84-14.42.34c6.88-4.76,14-4.12,34.79,2.26l-13.18-52.76L378,187.13l27,4.78-3.37-12.17-12,7.61-1.37-2,15.17-11.76,5.37,21.41-36.75-5.42,23.65-22.25.08-1.54-82.15,10.17-2.71,31L346,194l-.1-1.19-24.59-6.08-2.24,12.59c-3.52-3.29-3.53-3.93-.7-16.9l38.16,8.83.36,2-48.66,18.3c.16-12.28.21-23.58.61-34.87,0-1,2.18-2.25,3.58-2.76,2.36-.88,4.91-1.26,9.08-2.26-8.44-5.93-15.62-11.12-23-16.09-4.08-2.76-8.5-5-12.65-7.7-8-5.15-16-10-26.17-8.58a8.18,8.18,0,0,1-3.15-.52c-.52-.14-1-.61-3-2,8.6-1.34,19.08,4.39,21.28-8.35l-12.94-1.26-.38-2.14c8.33-1.46,19.67,4,23-9.63l-14-.07-.27-2.05c3-.25,6.1-1,9-.63,7.44,1.06,11.82-1.86,13.8-10.1l-20,0-.13-2.09c3.74-.28,7.49-.5,11.23-.86,8.35-.78,14.49,1.11,19.88,9s13.92,13.89,21.1,20.67c1.5,1.42,3.15,2.69,6,5.08L291.58,144l1.5-23.08,18.52,4.61c-3.15,3.21-3.15,3.21-16-.41l.92,14,25.82-6.45-25.74-27.37-22.68,31.57c10.08,6.21,19.64,11.84,28.93,17.9,6.81,4.45,13.2,9.54,19.91,14.15a8.14,8.14,0,0,0,5.11,1.51c7.19-.93,14.33-2.24,21.77-3.46-.45-.48-.63-.86-.86-.89-11.52-1.23-12.29-1.37-12.9-13.44-.57-11.12-1.4-22.76,1.27-33.32,1.48-5.85-1.74-9.43-.54-14.81,1.1,1.49,2.92,2.87,3.17,4.5,1.48,9.36,8.77,9.4,16.26,10.71L352.22,108l1.33-.86c5.23,5.61,3.73,18.94,16.86,15.26l-5.84-12.92,2.4-1.13c2.27,4.79,3.54,10.59,7.09,14.09s9.42,4.82,14.27,7.08l.86-1.35-8.88-13,13.27,14.11c-.83,2-1.19,4.45-2.6,5.85a43.73,43.73,0,0,1-8.28,6.09c-10,6-20,11.94-31.23,18.58l-1.59-32.7L368,133l-.57,2.46-13.81-2.64L354.71,154l33-20.47-.2-1.87-48.9-12.58c.19,13.3.26,25.29.58,37.27.12,4.5,2.27,6.58,7.35,6.58,16.56,0,33.12.76,49.68.72,4.29,0,8.57-1.93,12.86-3,3.94,16,8.42,31.8,11.6,47.91,1.51,7.67,4.93,11.61,12.25,12.41L422.6,170.44l7.24-2.54Z"/><path d="M409.08,160.71c-4.29,1-8.57,3-12.86,3-16.56,0-33.12-.73-49.68-.72-5.08,0-7.23-2.08-7.35-6.58-.32-12-.39-24-.58-37.27l48.9,12.58.2,1.87-33,20.47-1.12-21.22,13.81,2.64L368,133l-18.1-5.85,1.59,32.7c11.18-6.63,21.25-12.53,31.23-18.58a43.73,43.73,0,0,0,8.28-6.09c1.41-1.4,1.77-3.87,2.6-5.85l6.19,6.58L409.08,161Z"/><path class="cls-21" d="M36.34,3.85,50.89-5.71l-18-50.45,2.82-2.65,7,18.81L55.51-77.4l4.7-4.42L67.54-75,66.8-88l1.88-1.77c.46,4.18,2.07,8.66,1.11,12.49-1.5,5.95,1.6,9.12,5.81,14.17L75-82.91c6.55,8.16-1.47,18.68,6.92,26.5L81.57-74l2.32-.09c.2,4.46.76,8.93.5,13.36s-1.9,9.09,4.38,11.58l0-17.18,2.27-.08L92.62-43,57.44-28.86l3.81-36.25,18.7,19.88-14.33,7L64.56-40l10-6.8L63.88-58.18l-2.4,24.06L86.82-44.46,59.71-78.54C54.51-63.76,49.48-49.89,44.88-35.87c-.7,2.14.29,5,1,7.4,2.22,6.92,4.73,13.76,7.49,21.67L78.64-21.51c3.11,6.26,6.27,12.44,9.23,18.71C89.43.49,90.45,4,92,7.33c2.54,5.4,2.75,9.57-5.79,10.33l7.69,8.17-.82,1.51c-6.54-4.59-12.17-12.44-21.83-6.66l10.87,9.19-1,1.56c-2.28-1.38-5-2.32-6.75-4.21-6.67-7.42-14.51-7.81-24.19-4.35L66.58,33.13c-6,1-13-3.14-21-11.85L73.34-4.83l7,15-2.4,1.22L72,.75,53.35,18.32l37.4-4.68L77.84-16.55C65.55-10,54.08-3.85,42.51,2.12c-1.84.95-4.14,1-6.22,1.49Z"/><path class="cls-21" d="M99.87-98q20.33,12.26,40.66,24.51C144-71.42,148.13-70,151-67.32c9.73,9.09,20.16,8.79,31.74,4.2,7.49-3,15.48-4.67,23.25-6.93l2.65,2.82L182.77-60c-4.68,1.31-9.37,2.59-15.28,4.22l23.13,18.25-11.21,8.65,1,1.33,12.79,1.35c-6.57,4.19-14.33-3-18.09,6.1l15.38,1.53c-6.75,5.46-16.34-2.9-20.55,7.07l12.16,1.62L182-7.62c-3.36-.17-6.82-.92-10-.34-2.77.5-5.27,2.51-7.89,3.86l.67,2,11.93,2c-10.57,4.87-17.23,2-21.74-6.87-4.62-9.07-9.86-17.82-14.78-26.62l17.53-13.23c3.58,5.06,5.15,22.38,1.62,27.9L156.63-42,145-32.64l15.66,28.9,22-35c-5.79-4.9-11.52-10.74-18.17-15.21-19-12.8-38.47-25-57.66-37.59C104.28-93.23,102.21-95.83,99.87-98Z"/><path class="cls-21" d="M322.79,54.09c-11.85-1.91-23.72-3.65-35.52-5.79-5.92-1.07-8.28,1.23-8.69,6.89-.61,8.34-1.49,16.66-2.36,26.05l43.25-6.57L290.52,58.21l-2.85,13.21,16.44-.59.05,2.62c-5.61.63-11.21,1.44-16.84,1.69-.88,0-2.8-2.63-2.65-3.85.72-5.9,2-11.72,3.23-18.6L326.72,74.9l-.28,1.64L262.59,87l-.5-1.81,10.29-2.95,1.45-9-11.49.65-.29-2,12-1.83.87-9.32-10.32.07L264.43,59l11-1.45,1.24-8.79-10.82,1.66.06-3.67L305,46.23c-15.84-14.1-26.54-34.39-47.14-45C264.43-1,268.38,9.43,275,3.31l2.65,2.82c-3.68,2-1.64,3.84.18,5.79,10.4,11.14,20.93,22.16,31,33.56,3,3.36,5.95,5.28,10.37,4.86Z"/><path d="M346.68,79.49l9.73,10.35c-5.9-1.69-10-8.18-18.91-6.91l19,11.28-.5,1.38-32.93.69,13.88-19.6Z"/><path class="cls-21" d="M346.68,79.49l-9.74-2.8-13.88,19.6L356,95.59l.5-1.38-19-11.28c8.9-1.27,13,5.21,18.91,6.91l7.08,7.52c-.28.31-.56.88-.85.89-14.51.43-29,.8-45.63,1.24,6.65-9.42,12-17.44,18-25.06.9-1.16,4.21-.44,6.4-.59Z"/><path d="M319.25,50.33c-4.42.42-7.39-1.5-10.37-4.86-10.11-11.4-20.64-22.42-31-33.56C276,10,274,8.18,277.67,6.13Z"/><path class="cls-21" d="M185.43,274.94l19.45-26c-9-2.39-18-4.76-27.06-7.23-8.57-2.35-8.41-2.39-7-10.89.33-2-.18-4.78-1.45-6.16C156.64,210.7,143.63,197,130,182.51c-14.59,12-27.85,22.86-40.88,34-.9.77-.8,4.11.09,5.36,3.21,4.5,7,8.62,10.52,12.9l32-25.77-8-8.53L103,224.65l-2.17-1.78L123.07,195l13.32,14.16-37,31.54C94.34,234,89,227.42,84.25,220.4c-.73-1.08.73-4.76,2.21-6,11.67-9.83,23.58-19.38,35.44-29,2.33-1.88,4.8-3.58,7.76-5.78l11.1,10.52c5.17-12.45-6.36-15.81-12.33-22.09l1.42-1.38,12.06,8.46c.93-4.63,3.52-9-1.33-12.81-3.44-2.72-6.9-5.41-10.35-8.12l1.15-1.63,11.49,8.13c2.32-5.18,1-8.39-3.82-11-3-1.62-5.24-4.61-7.83-7l1.18-1.47,11.43,8.4c2.42-5.53,3-10-3.38-13-1.55-.72-2.42-2.91-4-5l60.23,39.93L183,180.74l43.66,29.49,17.07-29.55-32.21,2.94,10.21,14.21,10.39-11.6,1.92,1.5L224,203c-9.73-6-13.67-15.53-20.06-24.12,10.6,0,20.24.93,29.54-.4,9-1.29,17.68-5,27.13-7.09-5.38,6-16.72,6.34-16.76,17.1L254.59,185c-5,7.12-15.77,6-18.88,16.22l16.79-5.95c-6.13,8.85-18.42,4.69-22.08,15.4L248,205.88c-4.2,6-17.7,9.39-24.46,6.2-5.36-2.53-10.16-6.27-15.14-9.57-9.44-6.27-18.83-12.61-28.95-19.4l-18.85,15.7-11.42-18.67,22.2-17.38c1.54,7.22-5.73,21.89-11.55,23.17l6.78-12.82-1-.73-11.47,8.26,7.22,12.46,30.1-22L148.23,143c-.82,9.69-1.63,18.29-2.24,26.9-.32,4.5.53,9.25-.62,13.5-2.3,8.55,1.28,13.84,7.35,19.24,6.83,6.07,12.7,13.23,19.22,20.16l10.52-18.47,30.07,22.3-16.32,12.75-14.44-13.88,15.68-6.84L181.88,207.4c-3,9.12-5.75,17.25-8.33,25.43-1.2,3.8,1,5.48,4.4,6.33,9.37,2.35,18.7,4.87,28.11,7.05,1.32.31,3.26-.53,4.44-1.44a28.68,28.68,0,0,0,4.83-5.16c6.1-7.93,5.8-7.65,13.58-1,9.93,8.46,20.34,16.36,30.08,24.13l20.47-31.31-31.37-14.08,2.63,30.11,13.78-11.86-6.92-7.36,1-1.15,13.31,7.6L250,253c-3.91-13.64-4.85-26.59-4.47-40.43L287.88,231c-12.89,9.43-20.41,22.67-26.27,38.09l-39.38-32.43-33.5,37.77c14.91,9.52,30.17,15,47.59,18.09l-7.13-29.1-17.33,8.22L229,284.27l-2,2.41L206.6,271.05l24.84-12,7.76,32.78,42.37-28.51c-1.58,5.3-8.37,11.45-1,18.13l6-8.39,1.75.67c-3.17,6.91-11.15,13.4-2.44,21.31l6.44-9c.44,7.2-9.29,11.91-2.78,20.27l6.05-9.69c1.7,5.43-4.41,14.87-8.75,13.48-11.91-3.82-23.51-8.61-36.48-13.49l20-15.48,1.42,1.14a65.66,65.66,0,0,1-5.37,6.77c-2.26,2.21-5,4-8.59,6.83L286,307.23l-12.5-33.3c-7.38,4.59-14.72,8.24-21,13.23-10.82,8.63-22.09,9.19-34.32,4.23-1.56-.63-3.19-1.08-5.1-1.72l9.37,23.51-21.79,20.49-31-27.37,1.06-1.82c6.8-1.29,13.68-2.3,20.4-3.94,10.44-2.55,10.39-2.73,14.85,7.25,1.29,2.88,2.62,5.73,4.87,10.64l-24.49-6.67.59-2.81,17.33,4-4.52-10.85-24.29,5.17,24.3,21.09c6.27-5,12.29-9.65,18.07-14.6.72-.61.59-2.93.08-4.13-3-7.09-6.14-14.16-9.6-21.05-.74-1.47-3-2.28-4.58-3.22C197.85,282,191.94,278.64,185.43,274.94Zm2.2-48.59,9,9.59,11.62-9.5-8.17-6.2Z"/><path class="cls-21" d="M147,96.92c8.06,2,16.17,3.88,24.17,6.13,10.49,2.94,20.9,6.18,31.41,9.31-.19,1.07-.08,1.87-.43,2.25-6.74,7.33-3.79,14.61-.34,22.2,4.87,10.73,9.07,21.76,14.05,32.43.82,1.76,4.58,3.76,6.25,3.25,9.7-3,19.18-6.68,30.13-10.64l-24.61-34.24-1.71.19-5.85,31.48,16.43-5.3L230.3,143.8l2.1-1.44,10.63,13-27.55,9.1c2.8-14.61,5.26-27.7,7.9-40.74.18-.9,1.87-2.29,2.63-2.15,6.1,1.08,12.15,2.47,18.22,3.76l-.67,2.62-12.45-3.1-1.2,1.49c3.15,2.75,5.91,6.5,9.57,8,3.87,1.57,8.61,1,13,1.32V138l-12.12.07c2.08,10.59,11.54,5.21,17,9.37l-9.53.68c1.85,10.22,10.07,9.32,17.65,9.82-.74,1.34-1.07,2.3-1.28,2.28-8-.93-13.26,5.2-20,7.51-7.45,2.56-14.8,5.37-22.24,8-4.87,1.7-7.48-.67-9.24-5.09-5.38-13.54-11-27-16.46-40.49-.38-.94-.83-1.84-1.63-3.59l-21.88,22.69L169,111.48l21.16,6.39-12.42,14.77-2-1.35,8.11-11.82-11.89-4,2.91,24.69,1.57,1.06,23.26-25.7L147,97.18Z"/><path class="cls-21" d="M177.67,405c1.61,3.42,3.47,6.74,4.77,10.27,1.63,4.42,2.81,9,4.17,13.54,2,6.5,3.11,13.39,9.87,17.23,1.24.7,1.8,2.58,2.11,5-7.76-7-15.71-12.91-27.6-9.55l10.52,9.49L180,452.78c-2.45-1.94-5.62-3.41-7.2-5.89-4.58-7.22-11-6.76-18.95-5.46l11.3,9.67-1,1.49c-4.38-.31-7.72-3.57-9.8-6.91-3.29-5.27-7.62-4.89-13.9-4.69l10.32,9.66-1.67,1.84c-3-2.74-6-5.55-9.06-8.2-4.51-3.85-5.11-7.63-2.09-13.19,5.79-10.68,10.6-21.9,15.88-33l23,30.82-25-4-.19,4.58c1.81-3,1.81-3,19.42-3.15L154.36,405.2,138.8,437.32l46.61.15L177.86,405Z"/><path class="cls-21" d="M166.8,517.1c-8.34-1-5.95,6.2-7.82,10.05l-2-.08,2.38-7.37c-11.58-2-9.26,6.26-10.21,11.93l-1.84-.56,2.49-38,11.06.09,1.69,15.89-2.18.43-2.83-12.93-5.6-.6.08,20.95,23.2-5.56c-2.27-5.92-5-11.43-6.5-17.24-2.61-10-8.59-14.27-18.82-15.55-11.67-1.45-23.1-4.82-34.63-7.41a13.3,13.3,0,0,1-6.34-3c2,.19,3.94.22,5.85.59,15.59,3.08,31.2,6.11,46.73,9.48a9.1,9.1,0,0,1,5.61,4.25c3.22,6.75,5.88,13.78,8.6,20.76,3.09,8,3.33,16.13,1.94,24.37l-1.85.15-.52-12.85-5.62,1-2.16.21,2.23,11.3-2.59,0Z"/><path class="cls-21" d="M289.35,154.48,260.58,190.6l22.83,10.11,4.07-20L282,179.4l-5.21,12.67-2.07-.71L279.24,176l10.87,1.73-4.39,37.8-2.09.31c.87-6.26,2.89-13.15-6.58-13.8l-.72,9.75c-3.26-5.45,1.47-12.84-7.24-13.41l-2.24,9.86-1.62-.13,1-11.43-5.36-2.16L258.54,207l-2-.88C256.3,182.22,274.53,169.18,289.35,154.48Z"/><path class="cls-21" d="M36.28,3.61,40.22,52l-2.2.29C34.27,35.55,35.2,18.06,31.91.69L8-2.36l16.15,29,1.26-.09L26.58,5c4.21,5.46,3.35,21.91-1.33,29.57L2.43-6.12c11.51,1.37,21,2.25,30.45,3.89,1.47.26,2.33,4,3.46,6.09C36.34,3.85,36.28,3.61,36.28,3.61Z"/><path class="cls-21" d="M161.72,273c14.92-1.55,20.62,3.67,20.89,19.43l-27.78,6.9,7.09-22.27,12,8-1.18,2.1-8.75-4-3.87,11.16,18.28-4.53c.76-8.77-1.51-11.75-10-13.82-2.33-.57-4.43-2-6.64-3.1Z"/><path d="M228.78,521c0-5.89.33-11.79,0-17.67-.17-3.47.39-5.76,3.46-8.1,19.44-14.84,38.65-30,58.79-45.72l22.7,26.69c-5.28,10.38-15.84,8.13-24.71,11.32l-.49-16.82,13.37,8.93,1.48-2-17.73-13.84c0,10.21-.37,18.64.43,27,.19,2,4.4,3.64,6.41,6.92-1.36-.4-3.1-.39-4-1.26-3.25-3.12-6.09-6.66-9.35-9.78-1-1-3.27-2-4.24-1.53-8.54,4.21-16.92,8.75-26.17,13.62l7.15,5.14c-9.15,5.73-18.11,11.35-27.09,17Z"/><path d="M347,396.69l38.16,5.18c-1.87,11-9.32,18-18.2,24.9l-11.89-9.84,11.83-6.35,2,11.76,2.23-.18L371,405.71l-22.12,9.92,15.16,14c-5.79,7.62-12.75,1.87-18.93,3.32Z"/><path d="M252.07,530.07l8.93-6.64-.71-1.43L245,529.52l-1.13-1.92,5.18-7.24-1.31-1.22-11.69,11c.75,1.75,1.61,4.87,3.3,7.46,3.9,6,1.86,9.81-4.41,13l-11.74-20.42L248,513.39c.53-.36,1.15-.6,1.68-1,11.74-7.83,13.2-7.78,25.55.8C262.42,527.3,257.43,531.14,252.07,530.07Z"/><path d="M285.67,505.16,276,494l-1.74,1.27,8.23,12.59c-2.57.67-5,2.2-6.54,1.56-6.86-2.83-13.47-6.28-21.4-10.1,7.06-3.79,12.92-7.06,18.92-10a4.33,4.33,0,0,1,3.94.6,94.57,94.57,0,0,1,9,10.08C287,500.73,286.08,502.71,285.67,505.16Z"/><path d="M335.57,456.23,335,434.79l21.39,1.83Z"/><path d="M145.49,311.19l-2.69,11.39-10.18-15.43,20.16,3.75L147,325.74l-.94-.15,1.57-14.13Z"/><path d="M381,437.92c-2-.48-4.77-.35-5.67-1.59-1.38-1.92-2.37-6.74-1.93-6.95,6.19-2.91,4.68,4.74,8.28,5.76Z"/><path d="M385.57,425.08l-2.88,2.71-.85-.79,3.07-2.58Z"/><path d="M-14.11,106.35l-6.18,9.21-7.48-16.05-2.49,1.11,9.27,22,9.06-13.18C-3.06,120,5.39,130,13.53,140.17c.71.89-.05,3.6-.9,5C5.43,157.08-2,168.87-9.67,181.32l-26.38-19.05,28.87-22.85,1.27.52L-13,163.68l-10.93-6.26-1.31,2,13.62,10,11.28-37-1.53-.86L-17,142.86l-24.21-22.39,8.6-32Z"/><path d="M238.57,59.65,250.66,51l-.92-1.75-8.14,3.39,1.14-11.5,16.06,9.28L240.4,72l-3-7.35L201.89,85.33c3.34-13.83,9.7-25.94,8.42-40.76l-17.74,8.69-25-34.51L188.12,5.27l1.79.87-1.06,23.74L177.18,17.47l-1.74,1.46,13.08,15.63c10.77-6.14,18.75-19.48,34.26-11.88l-11.72,8.11,1.19,2c2.68-1.55,6.1-2.52,7.9-4.77,5.26-6.6,11.38-6.28,19.08-3.19l-13.09,8.8c6.26,1.44,9.52-1.77,12-4.69,4.05-4.8,8.63-4.36,14.76-2.77C237,32.44,238.11,45.18,238.57,59.65Z"/><path d="M193.32,56.31,178.54,67.87l.68,1.32,10.71-5.1-4.63,17.69L175,64.26l18.32-7.94Z"/><path d="M187.63,226.36l12.47-6.11,8.17,6.2-11.62,9.5Z"/></g></g></g></g></svg>