<svg xmlns="http://www.w3.org/2000/svg" viewBox="0 0 42 46"><title>Ресурс 1</title><g id="Слой_2" data-name="Слой 2"><g id="Слой_1-2" data-name="Слой 1"><path d="M37.9,24a5,5,0,0,1-9.8,0H1a1,1,0,0,1,0-2H28.1a5,5,0,0,1,9.8,0H41a1,1,0,0,1,0,2ZM33,20a3,3,0,1,0,3,3A3,3,0,0,0,33,20ZM13.9,6A5,5,0,0,1,4.1,6H1A1,1,0,0,1,1,4H4.1a5,5,0,0,1,9.8,0H41a1,1,0,0,1,0,2ZM9,2a3,3,0,1,0,3,3A3,3,0,0,0,9,2ZM22.9,42a5,5,0,0,1-9.8,0H1a1,1,0,0,1,0-2H13.1a5,5,0,0,1,9.8,0H41a1,1,0,0,1,0,2ZM18,38a3,3,0,1,0,3,3A3,3,0,0,0,18,38Z"/></g></g></svg>